<svg width="218" height="93" viewBox="0 0 218 93" fill="none" xmlns="http://www.w3.org/2000/svg">
<g filter="url(#filter0_d)">
<path d="M136.783 25.813C138.075 26.0514 139.057 26.5647 139.73 27.3531C140.413 28.1324 140.754 29.1408 140.754 30.3784C140.754 31.4052 140.524 32.3541 140.062 33.225C139.61 34.0959 138.983 34.7789 138.181 35.2739C137.59 35.6406 136.848 35.9019 135.953 36.0578C135.068 36.2136 133.587 36.2915 131.512 36.2915H124.829L128.053 16.1595H132.646C134.408 16.1595 135.667 16.2008 136.424 16.2833C137.18 16.3658 137.812 16.5125 138.319 16.7234C139.158 17.0534 139.823 17.5989 140.311 18.3598C140.809 19.1207 141.059 19.9824 141.059 20.945C141.059 22.2743 140.676 23.3744 139.91 24.2453C139.154 25.1071 138.112 25.6296 136.783 25.813ZM130.723 32.3449H131.374C133.015 32.3449 134.104 32.1478 134.639 31.7536C135.183 31.3594 135.455 30.6672 135.455 29.6771C135.455 28.9437 135.225 28.4212 134.763 28.1095C134.302 27.7978 133.523 27.6419 132.425 27.6419H131.457L130.723 32.3449ZM132.052 23.9566H132.508C133.809 23.9566 134.703 23.787 135.192 23.4478C135.69 23.0994 135.939 22.5173 135.939 21.7013C135.939 21.1146 135.736 20.6883 135.331 20.4225C134.934 20.1474 134.293 20.0099 133.407 20.0099H132.646L132.052 23.9566Z" fill="white"/>
<path d="M140.81 36.2915L147.008 16.1595H153.027L154.383 23.9566C154.466 24.4333 154.54 24.9375 154.604 25.4692C154.678 25.9918 154.747 26.5372 154.812 27.1056C154.913 26.7022 155.047 26.2714 155.213 25.813C155.388 25.3454 155.633 24.7633 155.946 24.0666L159.571 16.1595H165.548L166.032 36.2915H161.038L160.982 26.6931C160.982 26.1522 160.992 25.6205 161.01 25.0979C161.028 24.5662 161.056 24.0345 161.093 23.5028C160.89 24.1812 160.544 25.0292 160.055 26.0468C159.963 26.2485 159.894 26.3997 159.848 26.5006L155.227 36.2915H151.948L150.052 26.5143C149.951 26.0193 149.859 25.5242 149.776 25.0292C149.702 24.525 149.633 24.0207 149.568 23.5165C149.467 24.1124 149.356 24.6762 149.236 25.2079C149.125 25.7397 149.01 26.2347 148.89 26.6931L146.081 36.2915H140.81Z" fill="white"/>
<path d="M165.798 36.2915L174.777 25.4142L169.367 16.1595H175.51L177.641 20.1199C177.77 20.3675 177.895 20.6242 178.015 20.89C178.144 21.1467 178.264 21.408 178.374 21.6738C178.494 21.4171 178.633 21.1605 178.789 20.9038C178.955 20.6471 179.144 20.3766 179.357 20.0924L182.373 16.1595H189L181.183 25.7305L187.492 36.2915H181.155L178.236 30.9147C178.116 30.7039 177.991 30.4655 177.862 30.1997C177.742 29.9338 177.618 29.6542 177.489 29.3608C177.314 29.7184 177.148 30.0255 176.991 30.2822C176.834 30.5389 176.682 30.7681 176.534 30.9698L172.508 36.2915H165.798Z" fill="white"/>
<path d="M100.673 14.9265C97.3825 14.9265 94.6251 16.1121 92.4009 18.4835C90.1766 20.8548 89.0645 23.796 89.0645 27.307C89.0645 30.4136 89.9468 32.8952 91.7115 34.7518C93.4946 36.6084 95.8659 37.5368 98.8255 37.5368C102.061 37.5368 104.809 36.3143 107.07 33.8695C109.331 31.4062 110.462 28.4099 110.462 24.8805C110.462 21.9761 109.542 19.5956 107.704 17.739C105.866 15.864 103.522 14.9265 100.673 14.9265ZM98.1913 47.4081C95.3053 47.4081 92.6766 47.0129 90.3053 46.2224C87.9523 45.432 85.8568 44.2463 84.0185 42.6654C82.0884 40.9743 80.581 38.8879 79.4965 36.4062C78.4119 33.9246 77.8696 31.2868 77.8696 28.4926C77.8696 25.4779 78.3292 22.6655 79.2483 20.0552C80.1858 17.4265 81.5737 15.046 83.4119 12.9136C85.5626 10.3769 88.1821 8.43753 91.2703 7.09561C94.377 5.73532 97.7409 5.05518 101.362 5.05518C107.428 5.05518 112.327 6.8015 116.059 10.2941C119.809 13.7868 121.684 18.3272 121.684 23.9154C121.684 26.9118 121.206 29.7335 120.25 32.3805C119.313 35.0092 117.934 37.3805 116.114 39.4945C113.89 42.0864 111.261 44.0533 108.228 45.3952C105.195 46.7371 101.849 47.4081 98.1913 47.4081Z" fill="white"/>
<path d="M47.0289 15.3073C48.0996 12.885 49.4711 10.6386 51.1432 8.56801C51.7233 7.8528 52.3351 7.17504 52.9786 6.53472C52.0703 6.21086 51.1522 5.93826 50.2243 5.71691C48.2206 5.23897 46.1526 5 44.0202 5C40.2702 5 36.8787 5.65257 33.8456 6.95772C30.8309 8.26286 28.3125 10.1471 26.2905 12.6103C24.5625 14.7243 23.2482 17.0772 22.3475 19.6691C21.4651 22.2426 21.0239 24.954 21.0239 27.8033C21.0239 33.704 22.7519 38.4375 26.2077 42.0036C29.682 45.5698 34.296 47.3529 40.0496 47.3529C41.9798 47.3529 43.7721 47.2334 45.4265 46.9944C47.0993 46.7738 48.625 46.443 50.0037 46.0018L50.0398 45.7774C48.0035 43.3543 46.5147 40.5568 45.5734 37.385C44.5226 37.5597 43.4902 37.647 42.4761 37.647C39.1489 37.647 36.5754 36.7555 34.7555 34.9724C32.9357 33.1709 32.0258 30.6342 32.0258 27.3621C32.0258 23.7408 33.1103 20.7628 35.2794 18.4283C37.4485 16.0937 40.2059 14.9265 43.5515 14.9265C44.7373 14.9265 45.8965 15.0534 47.0289 15.3073Z" fill="white"/>
<path d="M75.3844 15.3073C76.4551 12.885 77.8266 10.6386 79.4987 8.56801C80.0788 7.8528 80.6905 7.17504 81.334 6.53472C80.4258 6.21086 79.5077 5.93826 78.5797 5.71691C76.5761 5.23897 74.508 5 72.3757 5C68.6257 5 65.2342 5.65257 62.2011 6.95772C59.1864 8.26286 56.668 10.1471 54.6459 12.6103C52.918 14.7243 51.6037 17.0772 50.7029 19.6691C49.8206 22.2426 49.3794 24.954 49.3794 27.8033C49.3794 33.704 51.1073 38.4375 54.5632 42.0036C58.0375 45.5698 62.6514 47.3529 68.4051 47.3529C70.3353 47.3529 72.1275 47.2334 73.7819 46.9944C75.4547 46.7738 76.9805 46.443 78.3591 46.0018L78.3953 45.7774C76.359 43.3543 74.8702 40.5568 73.9289 37.385C72.8781 37.5597 71.8456 37.647 70.8316 37.647C67.5044 37.647 64.9308 36.7555 63.111 34.9724C61.2911 33.1709 60.3812 30.6342 60.3812 27.3621C60.3812 23.7408 61.4658 20.7628 63.6349 18.4283C65.804 16.0937 68.5614 14.9265 71.9069 14.9265C73.0928 14.9265 74.252 15.0534 75.3844 15.3073Z" fill="white"/>
</g>
<defs>
<filter id="filter0_d" x="0.0239258" y="0" width="217.976" height="92.4081" filterUnits="userSpaceOnUse" color-interpolation-filters="sRGB">
<feFlood flood-opacity="0" result="BackgroundImageFix"/>
<feColorMatrix in="SourceAlpha" type="matrix" values="0 0 0 0 0 0 0 0 0 0 0 0 0 0 0 0 0 0 127 0"/>
<feOffset dx="4" dy="20"/>
<feGaussianBlur stdDeviation="12.5"/>
<feColorMatrix type="matrix" values="0 0 0 0 0 0 0 0 0 0.211667 0 0 0 0 0.529167 0 0 0 0.4 0"/>
<feBlend mode="normal" in2="BackgroundImageFix" result="effect1_dropShadow"/>
<feBlend mode="normal" in="SourceGraphic" in2="effect1_dropShadow" result="shape"/>
</filter>
</defs>
</svg>
