<svg width="267" height="68" viewBox="0 0 267 68" fill="none" xmlns="http://www.w3.org/2000/svg">
<path d="M184.001 33.3443C186.054 33.7231 187.615 34.5392 188.685 35.7923C189.77 37.031 190.313 38.6339 190.313 40.6011C190.313 42.2332 189.946 43.7413 189.213 45.1257C188.495 46.51 187.498 47.5956 186.222 48.3825C185.284 48.9654 184.104 49.3807 182.681 49.6284C181.274 49.8761 178.921 50 175.622 50H165L170.124 18H177.425C180.226 18 182.227 18.0656 183.429 18.1967C184.631 18.3279 185.636 18.561 186.442 18.8962C187.776 19.4208 188.832 20.2878 189.609 21.4973C190.401 22.7067 190.796 24.0765 190.796 25.6066C190.796 27.7195 190.188 29.4681 188.971 30.8525C187.769 32.2222 186.112 33.0528 184.001 33.3443ZM174.369 43.7268H175.402C178.012 43.7268 179.742 43.4135 180.592 42.7869C181.457 42.1603 181.89 41.0601 181.89 39.4863C181.89 38.3206 181.523 37.49 180.79 36.9945C180.057 36.4991 178.818 36.2514 177.074 36.2514H175.534L174.369 43.7268ZM176.48 30.3934H177.205C179.273 30.3934 180.695 30.1239 181.472 29.5847C182.264 29.031 182.659 28.1056 182.659 26.8087C182.659 25.8761 182.337 25.1985 181.692 24.776C181.061 24.3388 180.042 24.1202 178.635 24.1202H177.425L176.48 30.3934Z" fill="white"/>
<path d="M190.401 50L200.254 18H209.82L211.975 30.3934C212.107 31.1512 212.225 31.9526 212.327 32.7978C212.445 33.6284 212.555 34.4954 212.657 35.3989C212.819 34.7577 213.031 34.0729 213.295 33.3443C213.574 32.6011 213.962 31.6758 214.461 30.5683L220.222 18H229.723L230.493 50H222.554L222.466 34.7432C222.466 33.8834 222.48 33.0383 222.51 32.2077C222.539 31.3625 222.583 30.5173 222.642 29.6721C222.319 30.7505 221.769 32.0984 220.992 33.7158C220.846 34.0364 220.736 34.2769 220.662 34.4372L213.317 50H208.105L205.092 34.459C204.931 33.6721 204.784 32.8852 204.652 32.0984C204.535 31.2969 204.425 30.4954 204.322 29.694C204.161 30.6412 203.985 31.5373 203.795 32.3825C203.619 33.2277 203.435 34.0146 203.245 34.7432L198.78 50H190.401Z" fill="white"/>
<path d="M230.12 50L244.392 32.7104L235.794 18H245.558L248.945 24.2951C249.15 24.6885 249.348 25.0965 249.538 25.5191C249.744 25.9271 249.934 26.3424 250.11 26.765C250.301 26.357 250.521 25.949 250.77 25.541C251.034 25.133 251.334 24.7031 251.672 24.2514L256.466 18H267L254.575 33.2131L264.603 50H254.531L249.89 41.4536C249.7 41.1184 249.502 40.7395 249.297 40.3169C249.106 39.8944 248.908 39.4499 248.703 38.9836C248.424 39.5519 248.16 40.0401 247.911 40.4481C247.662 40.8561 247.42 41.2204 247.185 41.541L240.786 50H230.12Z" fill="white"/>
<path d="M126.94 15.8203C121.696 15.8203 117.302 17.71 113.757 21.4893C110.212 25.2686 108.439 29.9561 108.439 35.5518C108.439 40.5029 109.846 44.458 112.658 47.417C115.5 50.376 119.279 51.8555 123.996 51.8555C129.152 51.8555 133.532 49.9072 137.136 46.0107C140.739 42.085 142.541 37.3096 142.541 31.6846C142.541 27.0557 141.076 23.2617 138.146 20.3027C135.217 17.3145 131.481 15.8203 126.94 15.8203ZM122.985 67.5879C118.386 67.5879 114.196 66.958 110.417 65.6982C106.667 64.4385 103.327 62.5488 100.397 60.0293C97.3213 57.334 94.9189 54.0088 93.1904 50.0537C91.4619 46.0986 90.5977 41.8945 90.5977 37.4414C90.5977 32.6367 91.3301 28.1543 92.7949 23.9941C94.2891 19.8047 96.501 16.0107 99.4307 12.6123C102.858 8.56934 107.033 5.47852 111.955 3.33984C116.906 1.17188 122.268 0.0878906 128.039 0.0878906C137.707 0.0878906 145.515 2.87109 151.462 8.4375C157.438 14.0039 160.427 21.2402 160.427 30.1465C160.427 34.9219 159.665 39.4189 158.142 43.6377C156.647 47.8271 154.45 51.6064 151.55 54.9756C148.005 59.1064 143.815 62.2412 138.981 64.3799C134.147 66.5186 128.815 67.5879 122.985 67.5879Z" fill="white"/>
<path d="M41.4455 16.4273C43.152 12.5668 45.3377 8.98652 48.0027 5.68652C48.9272 4.54666 49.9022 3.46648 50.9278 2.44597C49.4802 1.92981 48.017 1.49535 46.5381 1.14258C43.3447 0.380859 40.0488 0 36.6504 0C30.6738 0 25.2686 1.04004 20.4346 3.12012C15.6299 5.2002 11.6162 8.20312 8.39355 12.1289C5.63965 15.498 3.54492 19.248 2.10938 23.3789C0.703125 27.4805 0 31.8018 0 36.3428C0 45.7471 2.75391 53.291 8.26172 58.9746C13.7988 64.6582 21.1523 67.5 30.3223 67.5C33.3984 67.5 36.2549 67.3096 38.8916 66.9287C41.5576 66.5771 43.9893 66.0498 46.1865 65.3467L46.2441 64.989C42.9988 61.1272 40.626 56.6687 39.1258 51.6136C37.4511 51.892 35.8056 52.0312 34.1895 52.0312C28.8867 52.0312 24.7852 50.6104 21.8848 47.7686C18.9844 44.8975 17.5342 40.8545 17.5342 35.6396C17.5342 29.8682 19.2627 25.1221 22.7197 21.4014C26.1768 17.6807 30.5713 15.8203 35.9033 15.8203C37.7933 15.8203 39.6407 16.0227 41.4455 16.4273Z" fill="white"/>
<path d="M86.6369 16.4273C88.3434 12.5668 90.5291 8.98652 93.1941 5.68652C94.1186 4.54666 95.0936 3.46648 96.1192 2.44597C94.6716 1.92981 93.2084 1.49535 91.7295 1.14258C88.5361 0.380859 85.2402 0 81.8418 0C75.8652 0 70.46 1.04004 65.626 3.12012C60.8213 5.2002 56.8076 8.20312 53.585 12.1289C50.8311 15.498 48.7363 19.248 47.3008 23.3789C45.8945 27.4805 45.1914 31.8018 45.1914 36.3428C45.1914 45.7471 47.9453 53.291 53.4531 58.9746C58.9902 64.6582 66.3438 67.5 75.5137 67.5C78.5898 67.5 81.4463 67.3096 84.083 66.9287C86.749 66.5771 89.1807 66.0498 91.3779 65.3467L91.4355 64.989C88.1902 61.1272 85.8174 56.6687 84.3173 51.6136C82.6425 51.892 80.997 52.0312 79.3809 52.0312C74.0781 52.0312 69.9766 50.6104 67.0762 47.7686C64.1758 44.8975 62.7256 40.8545 62.7256 35.6396C62.7256 29.8682 64.4541 25.1221 67.9111 21.4014C71.3682 17.6807 75.7627 15.8203 81.0947 15.8203C82.9847 15.8203 84.8321 16.0227 86.6369 16.4273Z" fill="white"/>
</svg>
