<svg viewBox="0 0 730 730" fill="none" xmlns="http://www.w3.org/2000/svg">
<g filter="url(#filter0_b)">
<circle cx="361" cy="345" r="4" fill="#BEDAFF" fill-opacity="0.7"/>
</g>
<g filter="url(#filter1_bd)">
<circle cx="361" cy="345" r="178" fill="#00C2FF" fill-opacity="0.8"/>
</g>
<g filter="url(#filter2_d)">
<path d="M301.416 263.479L300.256 270.58C299.271 269.725 298.199 269.08 297.039 268.646C295.879 268.201 294.672 267.979 293.418 267.979C291.285 267.979 289.527 268.723 288.144 270.211C286.762 271.699 286.07 273.598 286.07 275.906C286.07 277.992 286.65 279.609 287.81 280.758C288.971 281.895 290.611 282.463 292.732 282.463C293.646 282.463 294.584 282.352 295.545 282.129C296.517 281.906 297.537 281.572 298.603 281.127L297.531 287.789C296.652 288.07 295.68 288.281 294.613 288.422C293.558 288.574 292.416 288.65 291.185 288.65C287.517 288.65 284.576 287.514 282.361 285.24C280.158 282.967 279.056 279.949 279.056 276.188C279.056 274.371 279.338 272.643 279.9 271.002C280.474 269.35 281.312 267.85 282.414 266.502C283.703 264.932 285.308 263.73 287.23 262.898C289.164 262.066 291.326 261.65 293.717 261.65C295.076 261.65 296.394 261.803 297.672 262.107C298.949 262.412 300.197 262.869 301.416 263.479ZM316.393 267.979C314.295 267.979 312.538 268.734 311.12 270.246C309.702 271.758 308.993 273.633 308.993 275.871C308.993 277.852 309.555 279.434 310.68 280.617C311.817 281.801 313.329 282.393 315.215 282.393C317.278 282.393 319.03 281.613 320.471 280.055C321.913 278.484 322.633 276.574 322.633 274.324C322.633 272.473 322.047 270.955 320.876 269.771C319.704 268.576 318.21 267.979 316.393 267.979ZM314.811 288.686C312.971 288.686 311.295 288.434 309.784 287.93C308.284 287.426 306.948 286.67 305.776 285.662C304.545 284.584 303.585 283.254 302.893 281.672C302.202 280.09 301.856 278.408 301.856 276.627C301.856 274.705 302.149 272.912 302.735 271.248C303.333 269.572 304.217 268.055 305.389 266.695C306.76 265.078 308.43 263.842 310.399 262.986C312.379 262.119 314.524 261.686 316.833 261.686C320.7 261.686 323.823 262.799 326.202 265.025C328.592 267.252 329.788 270.146 329.788 273.709C329.788 275.619 329.483 277.418 328.874 279.105C328.276 280.781 327.397 282.293 326.237 283.641C324.819 285.293 323.143 286.547 321.21 287.402C319.276 288.258 317.143 288.686 314.811 288.686ZM329.806 288L337.681 262.266H345.327L347.05 272.232C347.156 272.842 347.249 273.486 347.331 274.166C347.425 274.834 347.513 275.531 347.595 276.258C347.724 275.742 347.894 275.191 348.105 274.605C348.327 274.008 348.638 273.264 349.036 272.373L353.642 262.266H361.236L361.851 288H355.505L355.435 275.73C355.435 275.039 355.447 274.359 355.47 273.691C355.493 273.012 355.529 272.332 355.575 271.652C355.318 272.52 354.878 273.604 354.257 274.904C354.14 275.162 354.052 275.355 353.993 275.484L348.122 288H343.956L341.548 275.502C341.419 274.869 341.302 274.236 341.197 273.604C341.103 272.959 341.015 272.314 340.933 271.67C340.804 272.432 340.663 273.152 340.511 273.832C340.37 274.512 340.224 275.145 340.072 275.73L336.503 288H329.806ZM373.277 273.568H373.928C376.154 273.568 377.66 273.334 378.445 272.865C379.23 272.396 379.623 271.6 379.623 270.475C379.623 269.525 379.283 268.834 378.604 268.4C377.936 267.955 376.881 267.732 375.439 267.732H374.209L373.277 273.568ZM364.137 288L368.232 262.266H375.299C377.256 262.266 378.727 262.348 379.711 262.512C380.695 262.664 381.551 262.928 382.277 263.303C383.59 263.971 384.568 264.885 385.213 266.045C385.869 267.205 386.197 268.594 386.197 270.211C386.197 271.816 385.846 273.305 385.143 274.676C384.451 276.047 383.508 277.102 382.312 277.84C381.609 278.273 380.777 278.584 379.816 278.771C378.855 278.947 377.35 279.035 375.299 279.035H374.244H372.416L370.975 288H364.137ZM386.725 288L390.803 262.266H397.817L393.739 288H386.725ZM402.23 288L405.359 268.242H399.593L400.578 262.266H418.753L417.769 268.242H412.267L409.138 288H402.23ZM425.363 282.27H433.326L432.43 288H417.594L421.654 262.266H436.49L435.559 268.207H427.596L426.945 272.408H434.328L433.467 277.998H426.049L425.363 282.27ZM284.76 305.479L283.6 312.58C282.616 311.725 281.543 311.08 280.383 310.646C279.223 310.201 278.016 309.979 276.762 309.979C274.629 309.979 272.872 310.723 271.489 312.211C270.106 313.699 269.415 315.598 269.415 317.906C269.415 319.992 269.995 321.609 271.155 322.758C272.315 323.895 273.956 324.463 276.077 324.463C276.991 324.463 277.928 324.352 278.889 324.129C279.862 323.906 280.881 323.572 281.948 323.127L280.875 329.789C279.997 330.07 279.024 330.281 277.957 330.422C276.903 330.574 275.76 330.65 274.53 330.65C270.862 330.65 267.92 329.514 265.706 327.24C263.502 324.967 262.401 321.949 262.401 318.188C262.401 316.371 262.682 314.643 263.245 313.002C263.819 311.35 264.657 309.85 265.758 308.502C267.047 306.932 268.653 305.73 270.575 304.898C272.508 304.066 274.67 303.65 277.061 303.65C278.42 303.65 279.739 303.803 281.016 304.107C282.293 304.412 283.541 304.869 284.76 305.479ZM299.737 309.979C297.64 309.979 295.882 310.734 294.464 312.246C293.046 313.758 292.337 315.633 292.337 317.871C292.337 319.852 292.9 321.434 294.025 322.617C295.161 323.801 296.673 324.393 298.56 324.393C300.622 324.393 302.374 323.613 303.816 322.055C305.257 320.484 305.978 318.574 305.978 316.324C305.978 314.473 305.392 312.955 304.22 311.771C303.048 310.576 301.554 309.979 299.737 309.979ZM298.155 330.686C296.316 330.686 294.64 330.434 293.128 329.93C291.628 329.426 290.292 328.67 289.12 327.662C287.89 326.584 286.929 325.254 286.237 323.672C285.546 322.09 285.2 320.408 285.2 318.627C285.2 316.705 285.493 314.912 286.079 313.248C286.677 311.572 287.562 310.055 288.734 308.695C290.105 307.078 291.775 305.842 293.743 304.986C295.724 304.119 297.868 303.686 300.177 303.686C304.044 303.686 307.167 304.799 309.546 307.025C311.937 309.252 313.132 312.146 313.132 315.709C313.132 317.619 312.827 319.418 312.218 321.105C311.62 322.781 310.741 324.293 309.581 325.641C308.163 327.293 306.487 328.547 304.554 329.402C302.62 330.258 300.487 330.686 298.155 330.686ZM313.15 330L321.025 304.266H328.672L330.394 314.232C330.5 314.842 330.594 315.486 330.676 316.166C330.769 316.834 330.857 317.531 330.939 318.258C331.068 317.742 331.238 317.191 331.449 316.605C331.672 316.008 331.982 315.264 332.381 314.373L336.986 304.266H344.58L345.195 330H338.85L338.779 317.73C338.779 317.039 338.791 316.359 338.814 315.691C338.838 315.012 338.873 314.332 338.92 313.652C338.662 314.52 338.223 315.604 337.601 316.904C337.484 317.162 337.396 317.355 337.338 317.484L331.467 330H327.301L324.893 317.502C324.764 316.869 324.646 316.236 324.541 315.604C324.447 314.959 324.359 314.314 324.277 313.67C324.148 314.432 324.008 315.152 323.855 315.832C323.715 316.512 323.568 317.145 323.416 317.73L319.848 330H313.15ZM356.622 315.568H357.272C359.499 315.568 361.005 315.334 361.79 314.865C362.575 314.396 362.967 313.6 362.967 312.475C362.967 311.525 362.628 310.834 361.948 310.4C361.28 309.955 360.225 309.732 358.784 309.732H357.553L356.622 315.568ZM347.481 330L351.577 304.266H358.643C360.6 304.266 362.071 304.348 363.055 304.512C364.04 304.664 364.895 304.928 365.622 305.303C366.934 305.971 367.913 306.885 368.557 308.045C369.214 309.205 369.542 310.594 369.542 312.211C369.542 313.816 369.19 315.305 368.487 316.676C367.796 318.047 366.852 319.102 365.657 319.84C364.954 320.273 364.122 320.584 363.161 320.771C362.2 320.947 360.694 321.035 358.643 321.035H357.589H355.76L354.319 330H347.481ZM364.55 330L377.435 304.266H386.048L391.515 330H384.536L383.499 325.148H374.499L372.038 330H364.55ZM377.083 319.418H382.515L381.337 313.406C381.22 312.809 381.132 312.275 381.074 311.807C381.015 311.338 380.98 310.898 380.968 310.488C380.722 311.191 380.494 311.812 380.283 312.352C380.083 312.879 379.925 313.271 379.808 313.529L377.083 319.418ZM399.039 330H392.201L396.262 304.266H403.117C405.18 304.266 406.715 304.342 407.723 304.494C408.731 304.635 409.604 304.881 410.342 305.232C411.643 305.842 412.627 306.703 413.295 307.816C413.963 308.918 414.297 310.242 414.297 311.789C414.297 313.922 413.658 315.709 412.381 317.15C411.115 318.58 409.369 319.477 407.143 319.84L413.4 330H405.561L400.586 320.174L399.039 330ZM401.236 316.025H403.398C404.758 316.025 405.801 315.715 406.527 315.094C407.254 314.473 407.617 313.576 407.617 312.404C407.617 311.303 407.277 310.506 406.598 310.014C405.918 309.51 404.828 309.258 403.328 309.258H402.309L401.236 316.025ZM418.886 330L422.014 310.242H416.249L417.233 304.266H435.409L434.425 310.242H428.923L425.794 330H418.886ZM442.019 324.27H449.982L449.085 330H434.25L438.31 304.266H453.146L452.214 310.207H444.251L443.601 314.408H450.984L450.123 319.998H442.705L442.019 324.27Z" fill="white"/>
</g>
<g filter="url(#filter3_d)">
<path d="M262.511 426.312L262.222 428.266C261.779 427.802 261.298 427.458 260.777 427.234C260.261 427.005 259.699 426.891 259.089 426.891C258.464 426.891 257.884 427 257.347 427.219C256.816 427.432 256.363 427.742 255.988 428.148C255.545 428.622 255.204 429.169 254.964 429.789C254.73 430.404 254.613 431.042 254.613 431.703C254.613 432.88 254.972 433.839 255.691 434.578C256.415 435.318 257.35 435.688 258.496 435.688C259.069 435.688 259.618 435.589 260.144 435.391C260.675 435.193 261.188 434.898 261.683 434.508L261.285 436.695C260.764 436.898 260.264 437.049 259.785 437.148C259.306 437.253 258.845 437.305 258.402 437.305C256.735 437.305 255.389 436.797 254.363 435.781C253.342 434.76 252.832 433.422 252.832 431.766C252.832 430.849 252.993 429.979 253.316 429.156C253.644 428.328 254.108 427.615 254.707 427.016C255.264 426.458 255.902 426.034 256.621 425.742C257.339 425.451 258.11 425.305 258.933 425.305C259.673 425.305 260.337 425.388 260.925 425.555C261.519 425.721 262.048 425.974 262.511 426.312ZM264.637 437H262.957L264.543 424.891H266.223L264.637 437ZM267.856 427C267.856 426.724 267.952 426.49 268.145 426.297C268.343 426.104 268.582 426.008 268.863 426.008C269.145 426.008 269.379 426.104 269.567 426.297C269.759 426.484 269.856 426.719 269.856 427C269.856 427.286 269.759 427.526 269.567 427.719C269.379 427.911 269.145 428.008 268.863 428.008C268.572 428.008 268.33 427.911 268.137 427.719C267.949 427.526 267.856 427.286 267.856 427ZM266.746 437L267.723 429.594H269.403L268.426 437H266.746ZM270.458 437L272.059 424.891H273.739L272.7 432.742L276.458 429.594H278.637L274.59 433L277.739 437H275.708L272.668 433.062L272.137 437H270.458ZM289.06 433.062C289.06 432.349 288.901 431.797 288.583 431.406C288.265 431.016 287.815 430.82 287.232 430.82C286.544 430.82 286.005 431.086 285.614 431.617C285.224 432.148 285.028 432.88 285.028 433.812C285.028 434.443 285.203 434.948 285.552 435.328C285.906 435.708 286.38 435.898 286.974 435.898C287.62 435.898 288.127 435.646 288.497 435.141C288.872 434.635 289.06 433.943 289.06 433.062ZM283.888 429.594H285.489L285.411 430.375C285.75 430.026 286.112 429.766 286.497 429.594C286.888 429.422 287.31 429.336 287.763 429.336C288.737 429.336 289.487 429.638 290.013 430.242C290.539 430.846 290.802 431.706 290.802 432.82C290.802 434.133 290.479 435.195 289.833 436.008C289.187 436.82 288.346 437.227 287.31 437.227C286.81 437.227 286.346 437.122 285.919 436.914C285.492 436.706 285.094 436.388 284.724 435.961L284.13 440.508H282.45L283.888 429.594ZM293.537 433.531C293.537 434.24 293.701 434.792 294.029 435.188C294.357 435.583 294.813 435.781 295.396 435.781C296.068 435.781 296.599 435.513 296.99 434.977C297.38 434.44 297.576 433.701 297.576 432.758C297.576 432.117 297.401 431.609 297.052 431.234C296.703 430.854 296.232 430.664 295.638 430.664C294.998 430.664 294.487 430.922 294.107 431.438C293.727 431.953 293.537 432.651 293.537 433.531ZM298.708 437H297.029L297.154 436.188C296.862 436.557 296.526 436.833 296.146 437.016C295.766 437.198 295.328 437.289 294.833 437.289C293.865 437.289 293.115 436.984 292.583 436.375C292.057 435.76 291.794 434.891 291.794 433.766C291.794 432.438 292.117 431.367 292.763 430.555C293.409 429.742 294.255 429.336 295.302 429.336C295.797 429.336 296.255 429.44 296.677 429.648C297.104 429.852 297.498 430.164 297.857 430.586L298.005 429.594H299.685L298.708 437ZM305.701 431.078C305.586 430.995 305.461 430.932 305.326 430.891C305.196 430.844 305.055 430.82 304.904 430.82C304.305 430.82 303.834 431.042 303.49 431.484C303.146 431.927 302.914 432.609 302.795 433.531L302.326 437H300.646L301.623 429.594H303.24L303.115 430.555C303.407 430.143 303.724 429.839 304.068 429.641C304.417 429.438 304.792 429.336 305.193 429.336C305.375 429.336 305.555 429.359 305.732 429.406C305.909 429.453 306.081 429.526 306.248 429.625L305.701 431.078ZM307.834 433.531C307.834 434.24 307.998 434.792 308.326 435.188C308.654 435.583 309.11 435.781 309.693 435.781C310.365 435.781 310.897 435.513 311.287 434.977C311.678 434.44 311.873 433.701 311.873 432.758C311.873 432.117 311.699 431.609 311.35 431.234C311.001 430.854 310.529 430.664 309.936 430.664C309.295 430.664 308.785 430.922 308.404 431.438C308.024 431.953 307.834 432.651 307.834 433.531ZM313.006 437H311.326L311.451 436.188C311.16 436.557 310.824 436.833 310.443 437.016C310.063 437.198 309.626 437.289 309.131 437.289C308.162 437.289 307.412 436.984 306.881 436.375C306.355 435.76 306.092 434.891 306.092 433.766C306.092 432.438 306.415 431.367 307.061 430.555C307.706 429.742 308.553 429.336 309.6 429.336C310.094 429.336 310.553 429.44 310.975 429.648C311.402 429.852 311.795 430.164 312.154 430.586L312.303 429.594H313.982L313.006 437ZM319.678 434.82C319.954 435.206 320.259 435.5 320.593 435.703C320.926 435.906 321.272 436.008 321.632 436.008C321.986 436.008 322.27 435.93 322.483 435.773C322.697 435.612 322.803 435.401 322.803 435.141C322.803 434.771 322.408 434.367 321.616 433.93C321.585 433.914 321.564 433.904 321.553 433.898C320.798 433.471 320.301 433.104 320.061 432.797C319.827 432.484 319.71 432.109 319.71 431.672C319.71 430.974 319.968 430.409 320.483 429.977C320.999 429.539 321.671 429.32 322.499 429.32C323.004 429.32 323.47 429.414 323.897 429.602C324.324 429.789 324.725 430.073 325.1 430.453L324.061 431.531C323.822 431.234 323.553 431.008 323.257 430.852C322.96 430.695 322.647 430.617 322.319 430.617C322.053 430.617 321.827 430.698 321.639 430.859C321.452 431.021 321.358 431.211 321.358 431.43C321.358 431.789 321.691 432.133 322.358 432.461C322.603 432.586 322.793 432.685 322.928 432.758C323.507 433.076 323.905 433.393 324.124 433.711C324.343 434.023 324.452 434.411 324.452 434.875C324.452 435.615 324.194 436.206 323.678 436.648C323.163 437.086 322.47 437.305 321.6 437.305C321.027 437.305 320.494 437.19 319.999 436.961C319.509 436.727 319.077 436.388 318.702 435.945L319.678 434.82ZM327.233 433.531C327.233 434.24 327.398 434.792 327.726 435.188C328.054 435.583 328.509 435.781 329.093 435.781C329.765 435.781 330.296 435.513 330.687 434.977C331.077 434.44 331.273 433.701 331.273 432.758C331.273 432.117 331.098 431.609 330.749 431.234C330.4 430.854 329.929 430.664 329.335 430.664C328.694 430.664 328.184 430.922 327.804 431.438C327.424 431.953 327.233 432.651 327.233 433.531ZM332.405 437H330.726L330.851 436.188C330.559 436.557 330.223 436.833 329.843 437.016C329.463 437.198 329.025 437.289 328.53 437.289C327.562 437.289 326.812 436.984 326.28 436.375C325.754 435.76 325.491 434.891 325.491 433.766C325.491 432.438 325.814 431.367 326.46 430.555C327.106 429.742 327.952 429.336 328.999 429.336C329.494 429.336 329.952 429.44 330.374 429.648C330.801 429.852 331.194 430.164 331.554 430.586L331.702 429.594H333.382L332.405 437ZM340.492 433.047C340.492 432.323 340.333 431.771 340.015 431.391C339.703 431.01 339.247 430.82 338.648 430.82C337.971 430.82 337.437 431.091 337.046 431.633C336.656 432.174 336.46 432.919 336.46 433.867C336.46 434.497 336.64 435.008 336.999 435.398C337.359 435.784 337.833 435.977 338.421 435.977C339.057 435.977 339.559 435.716 339.929 435.195C340.304 434.669 340.492 433.953 340.492 433.047ZM335.945 424.891H337.624L336.921 430.328C337.249 429.995 337.598 429.747 337.968 429.586C338.343 429.419 338.752 429.336 339.195 429.336C340.163 429.336 340.911 429.641 341.437 430.25C341.968 430.859 342.234 431.729 342.234 432.859C342.234 434.198 341.908 435.273 341.257 436.086C340.611 436.898 339.757 437.305 338.695 437.305C338.226 437.305 337.788 437.206 337.382 437.008C336.981 436.81 336.578 436.492 336.171 436.055L336.023 437H334.343L335.945 424.891ZM345.023 432.406H348.843C348.828 431.906 348.672 431.513 348.375 431.227C348.083 430.935 347.69 430.789 347.195 430.789C346.632 430.789 346.156 430.935 345.765 431.227C345.375 431.518 345.127 431.911 345.023 432.406ZM348.75 434.727L349.961 435.672C349.528 436.24 349.06 436.654 348.554 436.914C348.049 437.174 347.468 437.305 346.812 437.305C345.713 437.305 344.825 436.974 344.148 436.312C343.471 435.646 343.132 434.771 343.132 433.688C343.132 432.417 343.521 431.375 344.297 430.562C345.078 429.745 346.07 429.336 347.273 429.336C348.278 429.336 349.078 429.648 349.672 430.273C350.271 430.893 350.57 431.727 350.57 432.773C350.57 432.862 350.565 432.977 350.554 433.117C350.549 433.253 350.539 433.417 350.523 433.609H344.875C344.875 434.281 345.044 434.818 345.382 435.219C345.721 435.615 346.172 435.812 346.734 435.812C347.125 435.812 347.494 435.719 347.843 435.531C348.198 435.339 348.5 435.07 348.75 434.727ZM356.555 431.078C356.44 430.995 356.315 430.932 356.18 430.891C356.049 430.844 355.909 430.82 355.758 430.82C355.159 430.82 354.688 431.042 354.344 431.484C354 431.927 353.768 432.609 353.648 433.531L353.18 437H351.5L352.477 429.594H354.094L353.969 430.555C354.26 430.143 354.578 429.839 354.922 429.641C355.271 429.438 355.646 429.336 356.047 429.336C356.229 429.336 356.409 429.359 356.586 429.406C356.763 429.453 356.935 429.526 357.102 429.625L356.555 431.078ZM363.087 433.531C363.087 434.245 363.251 434.805 363.579 435.211C363.907 435.612 364.357 435.812 364.93 435.812C365.602 435.812 366.136 435.542 366.532 435C366.928 434.453 367.126 433.706 367.126 432.758C367.126 432.122 366.949 431.615 366.594 431.234C366.245 430.854 365.777 430.664 365.188 430.664C364.548 430.664 364.037 430.922 363.657 431.438C363.277 431.953 363.087 432.651 363.087 433.531ZM367.798 440.484H366.118L366.673 436.297C366.344 436.635 365.99 436.888 365.61 437.055C365.23 437.221 364.821 437.305 364.383 437.305C363.415 437.305 362.665 437 362.133 436.391C361.607 435.776 361.344 434.906 361.344 433.781C361.344 432.448 361.667 431.375 362.313 430.562C362.959 429.745 363.805 429.336 364.852 429.336C365.347 429.336 365.805 429.438 366.227 429.641C366.654 429.844 367.061 430.159 367.446 430.586L367.587 429.594H369.235L367.798 440.484ZM371.11 429.594H372.79L372.392 432.695C372.381 432.763 372.368 432.859 372.353 432.984C372.259 433.661 372.212 434.109 372.212 434.328C372.212 434.807 372.345 435.174 372.61 435.43C372.876 435.685 373.256 435.812 373.751 435.812C374.438 435.812 374.938 435.625 375.251 435.25C375.569 434.875 375.798 434.151 375.938 433.078L376.407 429.594H378.087L377.587 433.352C377.457 434.32 377.308 435.003 377.142 435.398C376.98 435.789 376.751 436.125 376.454 436.406C376.131 436.703 375.733 436.927 375.259 437.078C374.79 437.229 374.251 437.305 373.642 437.305C372.605 437.305 371.824 437.07 371.298 436.602C370.777 436.133 370.517 435.435 370.517 434.508C370.517 434.263 370.563 433.771 370.657 433.031L370.665 433.016L371.11 429.594ZM380.204 427C380.204 426.724 380.301 426.49 380.493 426.297C380.691 426.104 380.931 426.008 381.212 426.008C381.493 426.008 381.728 426.104 381.915 426.297C382.108 426.484 382.204 426.719 382.204 427C382.204 427.286 382.108 427.526 381.915 427.719C381.728 427.911 381.493 428.008 381.212 428.008C380.921 428.008 380.678 427.911 380.486 427.719C380.298 427.526 380.204 427.286 380.204 427ZM379.095 437L380.072 429.594H381.751L380.775 437H379.095ZM384.619 432.406H388.439C388.423 431.906 388.267 431.513 387.97 431.227C387.679 430.935 387.285 430.789 386.791 430.789C386.228 430.789 385.752 430.935 385.361 431.227C384.97 431.518 384.723 431.911 384.619 432.406ZM388.345 434.727L389.556 435.672C389.124 436.24 388.655 436.654 388.15 436.914C387.645 437.174 387.064 437.305 386.408 437.305C385.309 437.305 384.421 436.974 383.744 436.312C383.067 435.646 382.728 434.771 382.728 433.688C382.728 432.417 383.116 431.375 383.892 430.562C384.673 429.745 385.666 429.336 386.869 429.336C387.874 429.336 388.673 429.648 389.267 430.273C389.866 430.893 390.166 431.727 390.166 432.773C390.166 432.862 390.16 432.977 390.15 433.117C390.145 433.253 390.134 433.417 390.119 433.609H384.47C384.47 434.281 384.64 434.818 384.978 435.219C385.317 435.615 385.767 435.812 386.33 435.812C386.72 435.812 387.09 435.719 387.439 435.531C387.793 435.339 388.095 435.07 388.345 434.727ZM396.439 437L397.002 432.742C397.012 432.664 397.02 432.583 397.025 432.5C397.031 432.411 397.033 432.284 397.033 432.117C397.033 431.633 396.916 431.263 396.682 431.008C396.447 430.747 396.106 430.617 395.658 430.617C394.96 430.617 394.413 430.844 394.018 431.297C393.622 431.745 393.364 432.435 393.244 433.367L392.775 437H391.096L392.072 429.594H393.689L393.564 430.484C393.991 430.094 394.432 429.805 394.885 429.617C395.343 429.43 395.83 429.336 396.346 429.336C397.106 429.336 397.697 429.536 398.119 429.938C398.546 430.333 398.76 430.891 398.76 431.609C398.76 431.792 398.749 432.005 398.728 432.25C398.708 432.49 398.676 432.771 398.635 433.094L398.119 437H396.439ZM401.807 432.406H405.627C405.612 431.906 405.455 431.513 405.158 431.227C404.867 430.935 404.474 430.789 403.979 430.789C403.416 430.789 402.94 430.935 402.549 431.227C402.158 431.518 401.911 431.911 401.807 432.406ZM405.533 434.727L406.744 435.672C406.312 436.24 405.843 436.654 405.338 436.914C404.833 437.174 404.252 437.305 403.596 437.305C402.497 437.305 401.609 436.974 400.932 436.312C400.255 435.646 399.916 434.771 399.916 433.688C399.916 432.417 400.304 431.375 401.08 430.562C401.862 429.745 402.854 429.336 404.057 429.336C405.062 429.336 405.862 429.648 406.455 430.273C407.054 430.893 407.354 431.727 407.354 432.773C407.354 432.862 407.349 432.977 407.338 433.117C407.333 433.253 407.323 433.417 407.307 433.609H401.658C401.658 434.281 401.828 434.818 402.166 435.219C402.505 435.615 402.955 435.812 403.518 435.812C403.908 435.812 404.278 435.719 404.627 435.531C404.981 435.339 405.283 435.07 405.533 434.727ZM408.62 434.82C408.896 435.206 409.2 435.5 409.534 435.703C409.867 435.906 410.213 436.008 410.573 436.008C410.927 436.008 411.211 435.93 411.424 435.773C411.638 435.612 411.745 435.401 411.745 435.141C411.745 434.771 411.349 434.367 410.557 433.93C410.526 433.914 410.505 433.904 410.495 433.898C409.739 433.471 409.242 433.104 409.003 432.797C408.768 432.484 408.651 432.109 408.651 431.672C408.651 430.974 408.909 430.409 409.424 429.977C409.94 429.539 410.612 429.32 411.44 429.32C411.945 429.32 412.411 429.414 412.838 429.602C413.266 429.789 413.667 430.073 414.042 430.453L413.003 431.531C412.763 431.234 412.495 431.008 412.198 430.852C411.901 430.695 411.588 430.617 411.26 430.617C410.995 430.617 410.768 430.698 410.581 430.859C410.393 431.021 410.299 431.211 410.299 431.43C410.299 431.789 410.633 432.133 411.299 432.461C411.544 432.586 411.734 432.685 411.87 432.758C412.448 433.076 412.846 433.393 413.065 433.711C413.284 434.023 413.393 434.411 413.393 434.875C413.393 435.615 413.135 436.206 412.62 436.648C412.104 437.086 411.411 437.305 410.542 437.305C409.969 437.305 409.435 437.19 408.94 436.961C408.45 436.727 408.018 436.388 407.643 435.945L408.62 434.82ZM419.152 434.82C419.428 435.206 419.732 435.5 420.066 435.703C420.399 435.906 420.745 436.008 421.105 436.008C421.459 436.008 421.743 435.93 421.956 435.773C422.17 435.612 422.277 435.401 422.277 435.141C422.277 434.771 421.881 434.367 421.089 433.93C421.058 433.914 421.037 433.904 421.027 433.898C420.271 433.471 419.774 433.104 419.534 432.797C419.3 432.484 419.183 432.109 419.183 431.672C419.183 430.974 419.441 430.409 419.956 429.977C420.472 429.539 421.144 429.32 421.972 429.32C422.477 429.32 422.943 429.414 423.37 429.602C423.797 429.789 424.198 430.073 424.573 430.453L423.534 431.531C423.295 431.234 423.027 431.008 422.73 430.852C422.433 430.695 422.12 430.617 421.792 430.617C421.527 430.617 421.3 430.698 421.113 430.859C420.925 431.021 420.831 431.211 420.831 431.43C420.831 431.789 421.165 432.133 421.831 432.461C422.076 432.586 422.266 432.685 422.402 432.758C422.98 433.076 423.378 433.393 423.597 433.711C423.816 434.023 423.925 434.411 423.925 434.875C423.925 435.615 423.667 436.206 423.152 436.648C422.636 437.086 421.943 437.305 421.073 437.305C420.501 437.305 419.967 437.19 419.472 436.961C418.982 436.727 418.55 436.388 418.175 435.945L419.152 434.82ZM429.113 430.805C428.368 430.805 427.759 431.073 427.285 431.609C426.816 432.146 426.582 432.833 426.582 433.672C426.582 434.339 426.759 434.862 427.113 435.242C427.467 435.622 427.951 435.812 428.566 435.812C429.342 435.812 429.962 435.557 430.425 435.047C430.894 434.536 431.128 433.849 431.128 432.984C431.128 432.292 430.951 431.755 430.597 431.375C430.248 430.995 429.753 430.805 429.113 430.805ZM429.097 429.32C430.248 429.32 431.168 429.659 431.855 430.336C432.543 431.008 432.886 431.906 432.886 433.031C432.886 434.276 432.483 435.299 431.675 436.102C430.868 436.904 429.832 437.305 428.566 437.305C427.436 437.305 426.532 436.974 425.855 436.312C425.178 435.651 424.839 434.771 424.839 433.672C424.839 432.391 425.235 431.346 426.027 430.539C426.819 429.727 427.842 429.32 429.097 429.32ZM443.465 437L444.027 432.727C444.043 432.633 444.053 432.539 444.058 432.445C444.069 432.346 444.074 432.247 444.074 432.148C444.074 431.654 443.97 431.276 443.762 431.016C443.558 430.75 443.264 430.617 442.879 430.617C442.264 430.617 441.788 430.836 441.449 431.273C441.116 431.706 440.887 432.398 440.762 433.352L440.301 437H438.605L439.144 432.734C439.16 432.583 439.168 432.474 439.168 432.406C439.173 432.333 439.176 432.266 439.176 432.203C439.176 431.667 439.074 431.268 438.871 431.008C438.668 430.747 438.355 430.617 437.933 430.617C437.355 430.617 436.902 430.836 436.574 431.273C436.251 431.711 436.027 432.404 435.902 433.352L435.433 437H433.769L434.746 429.594H436.41L436.168 430.484C436.558 430.099 436.962 429.812 437.379 429.625C437.801 429.432 438.246 429.336 438.715 429.336C439.246 429.336 439.683 429.451 440.027 429.68C440.371 429.904 440.631 430.247 440.808 430.711C441.246 430.237 441.686 429.891 442.129 429.672C442.571 429.448 443.056 429.336 443.582 429.336C444.285 429.336 444.829 429.539 445.215 429.945C445.605 430.352 445.801 430.927 445.801 431.672C445.801 431.828 445.793 432.01 445.777 432.219C445.762 432.427 445.733 432.708 445.691 433.062L445.176 437H443.465ZM451.223 430.805C450.478 430.805 449.869 431.073 449.395 431.609C448.926 432.146 448.692 432.833 448.692 433.672C448.692 434.339 448.869 434.862 449.223 435.242C449.577 435.622 450.061 435.812 450.676 435.812C451.452 435.812 452.072 435.557 452.535 435.047C453.004 434.536 453.238 433.849 453.238 432.984C453.238 432.292 453.061 431.755 452.707 431.375C452.358 430.995 451.863 430.805 451.223 430.805ZM451.207 429.32C452.358 429.32 453.277 429.659 453.965 430.336C454.652 431.008 454.996 431.906 454.996 433.031C454.996 434.276 454.593 435.299 453.785 436.102C452.978 436.904 451.942 437.305 450.676 437.305C449.546 437.305 448.642 436.974 447.965 436.312C447.288 435.651 446.949 434.771 446.949 433.672C446.949 432.391 447.345 431.346 448.137 430.539C448.929 429.727 449.952 429.32 451.207 429.32ZM456.215 434.82C456.491 435.206 456.796 435.5 457.129 435.703C457.463 435.906 457.809 436.008 458.168 436.008C458.523 436.008 458.806 435.93 459.02 435.773C459.234 435.612 459.34 435.401 459.34 435.141C459.34 434.771 458.944 434.367 458.153 433.93C458.122 433.914 458.101 433.904 458.09 433.898C457.335 433.471 456.838 433.104 456.598 432.797C456.364 432.484 456.247 432.109 456.247 431.672C456.247 430.974 456.504 430.409 457.02 429.977C457.536 429.539 458.207 429.32 459.036 429.32C459.541 429.32 460.007 429.414 460.434 429.602C460.861 429.789 461.262 430.073 461.637 430.453L460.598 431.531C460.359 431.234 460.09 431.008 459.793 430.852C459.497 430.695 459.184 430.617 458.856 430.617C458.59 430.617 458.364 430.698 458.176 430.859C457.989 431.021 457.895 431.211 457.895 431.43C457.895 431.789 458.228 432.133 458.895 432.461C459.14 432.586 459.33 432.685 459.465 432.758C460.043 433.076 460.442 433.393 460.661 433.711C460.879 434.023 460.989 434.411 460.989 434.875C460.989 435.615 460.731 436.206 460.215 436.648C459.7 437.086 459.007 437.305 458.137 437.305C457.564 437.305 457.03 437.19 456.536 436.961C456.046 436.727 455.614 436.388 455.239 435.945L456.215 434.82Z" fill="white"/>
</g>
<g filter="url(#filter4_d)">
<path d="M292.728 376.514C296.829 377.275 299.949 378.916 302.088 381.436C304.256 383.926 305.34 387.148 305.34 391.104C305.34 394.385 304.608 397.417 303.143 400.2C301.707 402.983 299.715 405.166 297.166 406.748C295.291 407.92 292.933 408.755 290.091 409.253C287.279 409.751 282.576 410 275.985 410H271.502H254.759L264.998 345.664H279.588C285.184 345.664 289.183 345.796 291.585 346.06C293.988 346.323 295.994 346.792 297.606 347.466C300.272 348.521 302.381 350.264 303.934 352.695C305.516 355.127 306.307 357.881 306.307 360.957C306.307 365.205 305.091 368.721 302.659 371.504C300.257 374.258 296.946 375.928 292.728 376.514ZM273.48 397.388H275.545C280.76 397.388 284.217 396.758 285.916 395.498C287.645 394.238 288.509 392.026 288.509 388.862C288.509 386.519 287.777 384.849 286.312 383.853C284.847 382.856 282.371 382.358 278.885 382.358H275.809L273.48 397.388ZM277.698 370.581H279.149C283.279 370.581 286.121 370.039 287.674 368.955C289.256 367.842 290.047 365.981 290.047 363.374C290.047 361.499 289.403 360.137 288.113 359.287C286.854 358.408 284.818 357.969 282.005 357.969H279.588L277.698 370.581ZM305.518 410L325.205 345.664H344.321L348.628 370.581C348.892 372.104 349.126 373.716 349.331 375.415C349.565 377.085 349.785 378.828 349.99 380.645C350.312 379.355 350.737 377.979 351.265 376.514C351.821 375.02 352.598 373.159 353.594 370.933L365.107 345.664H384.092L385.63 410H369.766L369.59 379.326C369.59 377.598 369.619 375.898 369.678 374.229C369.736 372.529 369.824 370.83 369.941 369.131C369.297 371.299 368.198 374.009 366.646 377.261C366.353 377.905 366.133 378.389 365.986 378.711L351.309 410H340.894L334.873 378.755C334.551 377.173 334.258 375.591 333.994 374.009C333.76 372.397 333.54 370.786 333.335 369.175C333.013 371.079 332.661 372.881 332.28 374.58C331.929 376.279 331.562 377.861 331.182 379.326L322.261 410H305.518ZM384.885 410L413.405 375.239L396.222 345.664H415.734L422.502 358.32C422.912 359.111 423.307 359.932 423.688 360.781C424.098 361.602 424.479 362.437 424.831 363.286C425.212 362.466 425.651 361.646 426.149 360.825C426.677 360.005 427.277 359.141 427.951 358.232L437.531 345.664H458.581L433.752 376.25L453.791 410H433.664L424.391 392.817C424.011 392.144 423.615 391.382 423.205 390.532C422.824 389.683 422.429 388.789 422.018 387.852C421.462 388.994 420.934 389.976 420.436 390.796C419.938 391.616 419.455 392.349 418.986 392.993L406.198 410H384.885Z" fill="white"/>
</g>
<g filter="url(#filter5_bd)">
<path fill-rule="evenodd" clip-rule="evenodd" d="M21 345C21 159.227 169.991 8.25334 355 5.05188V120.078C233.509 123.259 136 222.742 136 345C136 383.591 145.716 419.913 162.834 451.653L63.1953 509.18C36.3049 460.508 21 404.541 21 345Z" fill="#00C2FF" fill-opacity="0.7"/>
</g>
<g filter="url(#filter6_d)">
<path d="M87.7843 313.438L87.8271 312.789C87.9734 310.567 87.8385 309.049 87.4223 308.235C87.0062 307.42 86.2368 306.976 85.1142 306.902C84.1671 306.84 83.4548 307.134 82.9775 307.783C82.4893 308.421 82.1978 309.458 82.1031 310.897L82.0222 312.125L87.7843 313.438ZM101.584 323.507L76.1745 317.729L76.6388 310.678C76.7674 308.725 76.9459 307.263 77.1743 306.291C77.391 305.319 77.7104 304.483 78.1323 303.783C78.8851 302.517 79.8615 301.6 81.0615 301.034C82.2622 300.455 83.6695 300.219 85.2832 300.325C86.8852 300.431 88.3471 300.879 89.669 301.671C90.9917 302.451 91.9822 303.462 92.6403 304.703C93.0267 305.433 93.2819 306.284 93.4059 307.255C93.5181 308.225 93.5069 309.733 93.3721 311.78L93.3028 312.832L93.1827 314.656L102.033 316.684L101.584 323.507Z" fill="white"/>
<path d="M84.2321 283.696C83.8795 285.763 84.3291 287.623 85.581 289.275C86.8329 290.927 88.562 291.941 90.7685 292.317C92.7208 292.65 94.3748 292.362 95.7307 291.452C97.0885 290.53 97.926 289.139 98.2431 287.279C98.5898 285.246 98.116 283.388 96.8219 281.705C95.5162 280.02 93.7544 278.989 91.5364 278.611C89.7111 278.3 88.1167 278.622 86.7529 279.578C85.3777 280.533 84.5374 281.905 84.2321 283.696ZM104.379 288.736C104.069 290.549 103.539 292.159 102.788 293.564C102.04 294.958 101.07 296.148 99.8795 297.134C98.6099 298.166 97.1372 298.889 95.4615 299.305C93.7857 299.721 92.0699 299.779 90.314 299.48C88.4195 299.156 86.7013 298.566 85.1594 297.709C83.6079 296.838 82.2606 295.711 81.1175 294.327C79.7538 292.704 78.8158 290.85 78.3034 288.765C77.7814 286.667 77.7145 284.48 78.1025 282.205C78.7525 278.392 80.3749 275.501 82.9696 273.53C85.5663 271.548 88.6206 270.856 92.1324 271.455C94.0154 271.776 95.7374 272.379 97.2985 273.263C98.85 274.134 100.192 275.254 101.326 276.624C102.716 278.3 103.671 280.163 104.189 282.213C104.707 284.262 104.771 286.437 104.379 288.736Z" fill="white"/>
<path d="M107.466 272.271L89.2235 264.063L87.7092 269.626L82.201 267.107L86.9748 249.569L92.483 252.088L91.0379 257.397L109.28 265.606L107.466 272.271Z" fill="white"/>
<path d="M108.595 249.965L111.28 242.468L116.372 245.244L111.37 259.212L88.5117 246.713L93.5136 232.745L98.7931 235.626L96.1084 243.122L99.8443 245.151L102.333 238.2L107.306 240.896L104.805 247.88L108.595 249.965Z" fill="white"/>
<path d="M117.682 241.436L96.0939 226.852L99.4239 219.735L113.237 220.202C113.352 220.204 113.549 220.212 113.827 220.225C115.344 220.275 116.624 220.415 117.668 220.645L117.079 220.369C116.654 220.17 116.197 219.931 115.708 219.65C115.212 219.353 114.621 218.986 113.933 218.548L103.327 211.392L106.24 205.167L127.828 219.751L124.625 226.597L110.32 226.27C109.282 226.25 108.434 226.209 107.777 226.147C107.125 226.075 106.485 225.976 105.858 225.851L106.511 226.156C106.936 226.355 107.377 226.587 107.835 226.853C108.287 227.104 108.883 227.46 109.624 227.923L120.595 235.211L117.682 241.436Z" fill="white"/>
<path d="M118.23 184.64L123.735 189.273C122.496 189.681 121.394 190.272 120.427 191.046C119.45 191.815 118.641 192.737 117.999 193.814C116.907 195.646 116.646 197.537 117.216 199.487C117.786 201.437 119.063 203.003 121.045 204.185C122.837 205.254 124.523 205.583 126.104 205.175C127.674 204.761 129.003 203.643 130.089 201.821C130.557 201.036 130.941 200.173 131.242 199.234C131.549 198.285 131.784 197.238 131.948 196.094L137.121 200.427C136.913 201.325 136.596 202.269 136.17 203.257C135.761 204.241 135.241 205.261 134.611 206.318C132.733 209.469 130.25 211.413 127.163 212.151C124.082 212.879 120.926 212.28 117.695 210.354C116.135 209.423 114.794 208.297 113.673 206.973C112.548 205.634 111.689 204.146 111.095 202.51C110.407 200.598 110.197 198.604 110.467 196.527C110.742 194.441 111.492 192.37 112.717 190.317C113.413 189.149 114.219 188.095 115.135 187.154C116.05 186.213 117.082 185.375 118.23 184.64Z" fill="white"/>
<path d="M138.365 198.529L119.628 180.424L123.652 174.68L142.389 192.785L138.365 198.529Z" fill="white"/>
<path d="M142.219 192.034L130.511 165.744L135.978 159.088L159.334 171.197L154.904 176.59L150.497 174.312L144.785 181.267L146.972 186.248L142.219 192.034ZM141.997 175.633L145.444 171.435L140.051 168.53C139.515 168.241 139.047 167.97 138.648 167.718C138.248 167.466 137.886 167.214 137.562 166.963C137.949 167.599 138.284 168.17 138.567 168.675C138.848 169.164 139.051 169.535 139.175 169.79L141.997 175.633Z" fill="white"/>
<path d="M160.122 170.446L144.818 149.368L147.958 146.243C150.3 143.911 152.035 142.316 153.164 141.457C154.293 140.581 155.326 139.991 156.263 139.686C158.295 139.02 160.321 138.995 162.341 139.613C164.362 140.214 166.273 141.42 168.076 143.23C169.82 144.983 171.026 146.833 171.693 148.782C172.368 150.722 172.512 152.794 172.126 154.998C171.841 156.538 171.208 158.07 170.227 159.592C169.237 161.107 167.272 163.327 164.332 166.254L163.647 166.936L160.122 170.446ZM161.61 160.878C161.975 160.564 162.241 160.333 162.407 160.184C162.573 160.019 162.727 159.866 162.868 159.725C164.82 157.782 165.814 155.816 165.852 153.828C165.889 151.839 164.966 149.898 163.081 148.004C161.543 146.46 160.057 145.707 158.623 145.745C157.182 145.775 155.634 146.612 153.982 148.258L153.06 149.175L161.61 160.878Z" fill="white"/>
<path d="M176.515 128.02C174.876 129.329 173.974 131.016 173.809 133.082C173.644 135.148 174.26 137.056 175.656 138.805C176.892 140.353 178.319 141.238 179.936 141.461C181.563 141.677 183.114 141.196 184.588 140.019C186.2 138.732 187.083 137.03 187.237 134.912C187.383 132.786 186.755 130.844 185.351 129.085C184.195 127.638 182.791 126.818 181.136 126.624C179.475 126.421 177.934 126.887 176.515 128.02ZM188.199 145.189C186.761 146.337 185.294 147.185 183.798 147.735C182.312 148.277 180.796 148.52 179.252 148.464C177.617 148.389 176.036 147.949 174.509 147.144C172.982 146.339 171.662 145.241 170.551 143.849C169.352 142.347 168.462 140.763 167.881 139.097C167.303 137.414 167.047 135.676 167.115 133.883C167.177 131.764 167.711 129.756 168.716 127.859C169.722 125.945 171.128 124.268 172.932 122.828C175.954 120.415 179.089 119.336 182.337 119.592C185.595 119.84 188.335 121.357 190.558 124.141C191.75 125.633 192.634 127.229 193.211 128.928C193.789 130.61 194.045 132.34 193.98 134.117C193.903 136.293 193.375 138.319 192.398 140.194C191.421 142.069 190.021 143.734 188.199 145.189Z" fill="white"/>
<path d="M203.557 132.213L197.803 135.906L187.319 112.056L193.088 108.353C194.823 107.239 196.156 106.474 197.087 106.058C198.011 105.632 198.879 105.367 199.69 105.264C201.114 105.074 202.407 105.267 203.571 105.843C204.728 106.41 205.724 107.344 206.56 108.645C207.712 110.44 208.14 112.289 207.844 114.192C207.551 116.079 206.566 117.777 204.888 119.285L215.643 124.455L209.045 128.69L199.551 123.108L203.557 132.213ZM197.857 119.265L199.677 118.098C200.821 117.363 201.531 116.538 201.807 115.623C202.083 114.708 201.904 113.757 201.271 112.771C200.676 111.844 199.96 111.357 199.122 111.31C198.278 111.253 197.224 111.63 195.962 112.44L195.104 112.991L197.857 119.265Z" fill="white"/>
</g>
<g filter="url(#filter7_bd)">
<path fill-rule="evenodd" clip-rule="evenodd" d="M659.136 508.579C685.821 460.048 701 404.296 701 345C701 159.227 552.009 8.25334 367 5.05188V120.078C488.491 123.259 586 222.742 586 345C586 383.347 576.407 419.453 559.49 451.049L659.136 508.579Z" fill="#00C2FF" fill-opacity="0.5"/>
</g>
<g filter="url(#filter8_d)">
<path d="M591.94 212.664L610.629 205.529L607.755 200.531L613.427 198.406L622.486 214.163L616.814 216.288L614.072 211.518L595.383 218.653L591.94 212.664Z" fill="white"/>
<path d="M600.916 229.636L598.067 223.421L623.152 216.387L626.009 222.619C626.868 224.494 627.439 225.921 627.72 226.9C628.013 227.875 628.153 228.771 628.141 229.589C628.129 231.025 627.756 232.279 627.023 233.35C626.3 234.417 625.235 235.272 623.829 235.917C621.89 236.806 620 236.97 618.157 236.409C616.33 235.855 614.787 234.641 613.529 232.768L606.901 242.691L603.634 235.565L610.493 226.948L600.916 229.636ZM614.535 225.81L615.436 227.775C616.003 229.011 616.72 229.83 617.587 230.231C618.454 230.633 619.421 230.589 620.486 230.101C621.487 229.642 622.07 229.001 622.234 228.178C622.409 227.35 622.184 226.254 621.559 224.891L621.134 223.964L614.535 225.81Z" fill="white"/>
<path d="M607.738 244.431L633.311 239.441L635.715 246.029L610.142 251.02L607.738 244.431Z" fill="white"/>
<path d="M627.213 259.722L627.386 260.349C627.98 262.495 628.607 263.884 629.268 264.515C629.93 265.147 630.802 265.313 631.887 265.013C632.801 264.76 633.377 264.248 633.614 263.477C633.865 262.715 633.798 261.639 633.414 260.25L633.086 259.064L627.213 259.722ZM610.866 254.761L636.761 251.846L638.645 258.656C639.167 260.543 639.48 261.982 639.585 262.974C639.7 263.964 639.674 264.859 639.507 265.659C639.213 267.102 638.593 268.289 637.646 269.219C636.703 270.161 635.452 270.848 633.894 271.279C632.346 271.707 630.818 271.765 629.309 271.453C627.804 271.152 626.535 270.524 625.505 269.569C624.9 269.007 624.379 268.288 623.942 267.412C623.516 266.533 623.03 265.105 622.483 263.128L622.202 262.112L621.714 260.35L612.69 261.351L610.866 254.761Z" fill="white"/>
</g>
<g filter="url(#filter9_bd)">
<path fill-rule="evenodd" clip-rule="evenodd" d="M72.209 524.53L171.899 466.975C211.968 528.968 281.692 570 361 570C441.541 570 512.198 527.682 551.949 464.068L651.596 521.599C591.928 619.575 484.104 685 361 685C239.127 685 132.232 620.878 72.209 524.53Z" fill="#00C2FF" fill-opacity="0.3"/>
</g>
<g filter="url(#filter10_d)">
<path d="M170.45 562.282L183.623 539.136L188.833 544.267L180.764 556.97C180.559 557.295 180.309 557.649 180.014 558.032C179.726 558.407 179.382 558.833 178.979 559.308C179.59 559.005 180.147 558.74 180.651 558.512C181.171 558.284 181.584 558.107 181.89 557.981L197.024 552.333L202.484 557.711L174.708 566.475L170.45 562.282Z" fill="white"/>
<path d="M193.951 577.156L200.069 582.252L195.713 586.081L184.313 576.587L203.903 559.411L215.303 568.906L210.785 572.875L204.666 567.779L201.478 570.591L207.15 575.316L202.911 579.06L197.211 574.312L193.951 577.156Z" fill="white"/>
<path d="M199.702 589.401L217.652 570.519L224.121 574.979L221.379 588.525C221.358 588.639 221.317 588.832 221.258 589.104C220.958 590.591 220.609 591.83 220.21 592.822L220.579 592.287C220.845 591.901 221.157 591.49 221.515 591.053C221.889 590.614 222.349 590.091 222.895 589.485L231.704 580.207L237.363 584.109L219.412 602.991L213.189 598.7L215.876 584.646C216.068 583.625 216.248 582.796 216.417 582.158C216.596 581.527 216.799 580.912 217.026 580.315L216.617 580.908C216.351 581.294 216.049 581.691 215.711 582.098C215.39 582.503 214.939 583.032 214.36 583.686L205.36 593.302L199.702 589.401Z" fill="white"/>
<path d="M228.153 608.731L240.572 593.05L235.548 590.221L239.338 585.496L255.176 594.413L251.386 599.138L246.592 596.439L234.172 612.121L228.153 608.731Z" fill="white"/>
<path d="M238.864 615.08L261.267 597.014L269.103 600.589L263.397 626.271L257.048 623.375L258.118 618.53L249.929 614.795L245.677 618.188L238.864 615.08ZM254.658 610.654L259.6 612.908L261.024 606.95C261.165 606.357 261.306 605.836 261.448 605.385C261.589 604.934 261.739 604.52 261.899 604.142C261.383 604.679 260.918 605.15 260.502 605.553C260.102 605.95 259.795 606.241 259.581 606.427L254.658 610.654Z" fill="white"/>
<path d="M269.832 619.701C270.459 621.155 271.143 622.293 271.882 623.116C272.633 623.943 273.5 624.531 274.483 624.88C275.3 625.171 276.022 625.204 276.649 624.979C277.276 624.754 277.706 624.316 277.937 623.665C278.251 622.781 277.608 621.477 276.008 619.751C275.856 619.585 275.734 619.455 275.643 619.36C274.087 617.687 273.118 616.267 272.737 615.099C272.356 613.932 272.4 612.691 272.867 611.377C273.719 608.981 275.222 607.308 277.376 606.357C279.541 605.411 281.898 605.391 284.449 606.298C285.796 606.777 287.003 607.474 288.071 608.388C289.15 609.307 290.077 610.426 290.851 611.746L286.366 615.543C285.761 614.482 285.164 613.642 284.576 613.022C283.988 612.403 283.39 611.985 282.783 611.769C282.121 611.533 281.5 611.53 280.921 611.76C280.346 611.978 279.96 612.363 279.764 612.915C279.52 613.6 280.075 614.662 281.429 616.101C281.909 616.607 282.275 617.011 282.528 617.312C283.895 618.856 284.735 620.236 285.048 621.455C285.365 622.662 285.262 624 284.74 625.468C283.817 628.063 282.179 629.819 279.826 630.736C277.476 631.641 274.756 631.545 271.664 630.445C270.041 629.868 268.645 628.986 267.475 627.799C266.309 626.6 265.399 625.12 264.744 623.358L269.832 619.701Z" fill="white"/>
<path d="M305.427 639.252L309.514 628.374L305.293 612.951L312.8 614.495L314.23 621.501C314.311 621.865 314.382 622.275 314.444 622.73C314.52 623.176 314.584 623.65 314.636 624.151C315.095 623.492 315.456 622.986 315.72 622.634C315.998 622.272 316.212 622.017 316.362 621.868L322.149 616.419L329.914 618.016L316.266 629.835L312.211 640.648L305.427 639.252Z" fill="white"/>
<path d="M338.498 646.034L343.262 620.426L347.69 620.553C350.994 620.648 353.345 620.81 354.746 621.038C356.158 621.254 357.297 621.597 358.163 622.068C360.045 623.083 361.456 624.537 362.399 626.428C363.353 628.308 363.793 630.524 363.719 633.078C363.648 635.55 363.135 637.698 362.18 639.523C361.236 641.348 359.832 642.878 357.968 644.114C356.654 644.968 355.107 645.562 353.327 645.898C351.547 646.222 348.584 646.324 344.437 646.205L343.471 646.177L338.498 646.034ZM346.465 640.53C346.944 640.579 347.295 640.613 347.517 640.631C347.751 640.637 347.968 640.644 348.167 640.649C350.92 640.729 353.031 640.098 354.5 638.757C355.968 637.415 356.741 635.409 356.818 632.739C356.881 630.56 356.405 628.964 355.391 627.95C354.377 626.924 352.705 626.377 350.373 626.31L349.073 626.273L346.465 640.53Z" fill="white"/>
<path d="M379.114 626.165C377.023 626.327 375.328 627.216 374.031 628.833C372.734 630.449 372.172 632.373 372.345 634.605C372.497 636.579 373.18 638.113 374.393 639.207C375.618 640.299 377.171 640.772 379.052 640.627C381.108 640.468 382.795 639.556 384.112 637.89C385.428 636.214 385.999 634.254 385.825 632.01C385.682 630.164 384.981 628.696 383.721 627.607C382.461 626.505 380.925 626.025 379.114 626.165ZM379.134 646.932C377.3 647.074 375.61 646.952 374.064 646.566C372.529 646.18 371.139 645.529 369.893 644.615C368.583 643.635 367.522 642.383 366.711 640.859C365.899 639.335 365.425 637.685 365.287 635.909C365.139 633.993 365.293 632.183 365.749 630.478C366.215 628.761 366.98 627.18 368.044 625.734C369.286 624.016 370.856 622.655 372.753 621.65C374.66 620.633 376.765 620.035 379.067 619.857C382.922 619.558 386.122 620.427 388.666 622.464C391.221 624.499 392.636 627.293 392.911 630.845C393.058 632.749 392.893 634.566 392.416 636.296C391.949 638.013 391.189 639.588 390.137 641.021C388.85 642.778 387.276 644.157 385.415 645.159C383.553 646.161 381.459 646.752 379.134 646.932Z" fill="white"/>
<path d="M395.004 644.834L394.229 618.793L401.95 617.338L409.641 628.821C409.707 628.916 409.815 629.08 409.967 629.314C410.812 630.574 411.447 631.695 411.87 632.676L411.75 632.037C411.663 631.576 411.591 631.065 411.532 630.504C411.484 629.929 411.436 629.234 411.39 628.42L411.002 615.632L417.756 614.359L418.531 640.401L411.103 641.8L403.012 629.999C402.422 629.144 401.96 628.432 401.626 627.863C401.304 627.292 401.01 626.715 400.746 626.133L400.879 626.841C400.966 627.302 401.035 627.795 401.087 628.322C401.147 628.836 401.206 629.528 401.263 630.4L401.758 643.561L395.004 644.834Z" fill="white"/>
<path d="M421.625 639.538L426.721 611.213L434.984 608.781L447.493 631.925L440.798 633.895L438.434 629.534L429.8 632.075L428.809 637.424L421.625 639.538ZM430.661 625.848L435.872 624.315L433.045 618.88C432.764 618.34 432.529 617.853 432.34 617.42C432.152 616.987 431.994 616.575 431.867 616.185C431.829 616.929 431.786 617.589 431.735 618.166C431.693 618.728 431.652 619.149 431.613 619.43L430.661 625.848Z" fill="white"/>
<path d="M460.717 600.847L462.253 607.877C461.023 607.444 459.788 607.24 458.55 607.264C457.307 607.277 456.103 607.514 454.937 607.976C452.954 608.761 451.594 610.1 450.856 611.993C450.118 613.886 450.175 615.906 451.025 618.052C451.792 619.991 452.927 621.281 454.429 621.922C455.926 622.552 457.661 622.476 459.633 621.695C460.482 621.359 461.313 620.91 462.125 620.349C462.947 619.784 463.772 619.098 464.599 618.292L466.055 624.881C465.342 625.466 464.515 626.02 463.575 626.543C462.651 627.073 461.616 627.565 460.472 628.018C457.062 629.368 453.909 629.394 451.013 628.096C448.127 626.793 445.992 624.393 444.607 620.896C443.938 619.207 443.563 617.496 443.482 615.764C443.408 614.016 443.635 612.313 444.163 610.654C444.783 608.72 445.834 607.012 447.314 605.531C448.806 604.045 450.663 602.862 452.885 601.982C454.149 601.482 455.431 601.138 456.731 600.951C458.031 600.764 459.359 600.729 460.717 600.847Z" fill="white"/>
<path d="M470.479 623.917L463.002 598.958L469.323 595.918L476.799 620.878L470.479 623.917Z" fill="white"/>
<path d="M484.95 594.117C483.142 595.18 482.009 596.723 481.553 598.744C481.097 600.766 481.436 602.742 482.57 604.671C483.574 606.379 484.861 607.457 486.431 607.908C488.01 608.352 489.613 608.096 491.24 607.14C493.018 606.094 494.133 604.534 494.586 602.46C495.033 600.376 494.686 598.364 493.545 596.425C492.607 594.828 491.333 593.817 489.723 593.391C488.107 592.954 486.516 593.196 484.95 594.117ZM494.081 612.769C492.495 613.702 490.922 614.334 489.364 614.666C487.815 614.991 486.281 615.017 484.76 614.742C483.153 614.436 481.65 613.777 480.252 612.763C478.854 611.75 477.704 610.476 476.801 608.94C475.827 607.283 475.171 605.589 474.833 603.858C474.499 602.11 474.492 600.354 474.814 598.588C475.176 596.499 475.989 594.587 477.252 592.851C478.52 591.1 480.149 589.639 482.139 588.469C485.473 586.509 488.729 585.886 491.909 586.6C495.098 587.308 497.595 589.197 499.401 592.268C500.369 593.915 501.018 595.62 501.348 597.384C501.682 599.131 501.691 600.88 501.374 602.629C500.989 604.773 500.179 606.703 498.946 608.42C497.713 610.138 496.091 611.587 494.081 612.769Z" fill="white"/>
<path d="M508.897 603.758L496.773 580.698L503.073 576.003L515.023 582.947C515.124 583.003 515.293 583.103 515.532 583.247C516.845 584.008 517.907 584.736 518.718 585.433L518.329 584.911C518.049 584.535 517.76 584.108 517.461 583.629C517.165 583.133 516.817 582.53 516.419 581.819L510.458 570.498L515.969 566.391L528.092 589.451L522.032 593.968L509.583 586.914C508.678 586.405 507.95 585.968 507.4 585.603C506.86 585.231 506.343 584.841 505.85 584.434L506.281 585.012C506.561 585.388 506.84 585.801 507.117 586.252C507.397 586.687 507.754 587.283 508.188 588.041L514.407 599.651L508.897 603.758Z" fill="white"/>
<path d="M535.2 575.727L541.126 570.409L544.286 575.273L533.245 585.181L519.079 563.316L530.121 553.408L533.396 558.452L527.469 563.77L529.791 567.331L535.286 562.4L538.378 567.136L532.857 572.09L535.2 575.727Z" fill="white"/>
<path d="M545.272 565.363C546.856 565.384 548.174 565.225 549.227 564.886C550.289 564.538 551.179 563.987 551.899 563.232C552.498 562.605 552.823 561.959 552.874 561.295C552.925 560.631 552.7 560.06 552.2 559.582C551.522 558.935 550.069 558.989 547.84 559.746C547.626 559.817 547.458 559.875 547.334 559.919C545.172 560.657 543.479 560.962 542.258 560.833C541.037 560.703 539.921 560.157 538.913 559.194C537.073 557.438 536.16 555.383 536.171 553.029C536.191 550.666 537.136 548.506 539.005 546.548C539.992 545.514 541.121 544.696 542.392 544.095C543.671 543.485 545.071 543.096 546.592 542.928L548.227 548.572C547.012 548.691 546.001 548.893 545.195 549.177C544.39 549.461 543.764 549.836 543.319 550.302C542.834 550.811 542.577 551.376 542.55 551.998C542.515 552.613 542.709 553.122 543.133 553.527C543.658 554.028 544.854 553.955 546.721 553.307C547.379 553.076 547.897 552.906 548.276 552.798C550.242 552.181 551.846 551.978 553.085 552.189C554.317 552.393 555.496 553.033 556.624 554.109C558.616 556.01 559.55 558.223 559.426 560.745C559.294 563.26 558.095 565.704 555.829 568.077C554.639 569.323 553.264 570.238 551.703 570.821C550.133 571.396 548.41 571.623 546.534 571.5L545.272 565.363Z" fill="white"/>
</g>
<defs>
<filter id="filter0_b" x="339" y="323" width="44" height="44" filterUnits="userSpaceOnUse" color-interpolation-filters="sRGB">
<feFlood flood-opacity="0" result="BackgroundImageFix"/>
<feGaussianBlur in="BackgroundImage" stdDeviation="9"/>
<feComposite in2="SourceAlpha" operator="in" result="effect1_backgroundBlur"/>
<feBlend mode="normal" in="SourceGraphic" in2="effect1_backgroundBlur" result="shape"/>
</filter>
<filter id="filter1_bd" x="157" y="149" width="416" height="424" filterUnits="userSpaceOnUse" color-interpolation-filters="sRGB">
<feFlood flood-opacity="0" result="BackgroundImageFix"/>
<feGaussianBlur in="BackgroundImage" stdDeviation="9"/>
<feComposite in2="SourceAlpha" operator="in" result="effect1_backgroundBlur"/>
<feColorMatrix in="SourceAlpha" type="matrix" values="0 0 0 0 0 0 0 0 0 0 0 0 0 0 0 0 0 0 127 0"/>
<feMorphology radius="5" operator="dilate" in="SourceAlpha" result="effect2_dropShadow"/>
<feOffset dx="4" dy="20"/>
<feGaussianBlur stdDeviation="12.5"/>
<feColorMatrix type="matrix" values="0 0 0 0 0 0 0 0 0 0.517647 0 0 0 0 0.678431 0 0 0 0.4 0"/>
<feBlend mode="normal" in2="effect1_backgroundBlur" result="effect2_dropShadow"/>
<feBlend mode="normal" in="SourceGraphic" in2="effect2_dropShadow" result="shape"/>
</filter>
<filter id="filter2_d" x="246.401" y="249.65" width="230.745" height="109.035" filterUnits="userSpaceOnUse" color-interpolation-filters="sRGB">
<feFlood flood-opacity="0" result="BackgroundImageFix"/>
<feColorMatrix in="SourceAlpha" type="matrix" values="0 0 0 0 0 0 0 0 0 0 0 0 0 0 0 0 0 0 127 0"/>
<feOffset dx="4" dy="8"/>
<feGaussianBlur stdDeviation="10"/>
<feColorMatrix type="matrix" values="0 0 0 0 0 0 0 0 0 0.361373 0 0 0 0 0.475 0 0 0 0.3 0"/>
<feBlend mode="normal" in2="BackgroundImageFix" result="effect1_dropShadow"/>
<feBlend mode="normal" in="SourceGraphic" in2="effect1_dropShadow" result="shape"/>
</filter>
<filter id="filter3_d" x="236.832" y="412.891" width="248.806" height="55.6172" filterUnits="userSpaceOnUse" color-interpolation-filters="sRGB">
<feFlood flood-opacity="0" result="BackgroundImageFix"/>
<feColorMatrix in="SourceAlpha" type="matrix" values="0 0 0 0 0 0 0 0 0 0 0 0 0 0 0 0 0 0 127 0"/>
<feOffset dx="4" dy="8"/>
<feGaussianBlur stdDeviation="10"/>
<feColorMatrix type="matrix" values="0 0 0 0 0 0 0 0 0 0.361373 0 0 0 0 0.475 0 0 0 0.3 0"/>
<feBlend mode="normal" in2="BackgroundImageFix" result="effect1_dropShadow"/>
<feBlend mode="normal" in="SourceGraphic" in2="effect1_dropShadow" result="shape"/>
</filter>
<filter id="filter4_d" x="238.759" y="333.664" width="243.822" height="104.336" filterUnits="userSpaceOnUse" color-interpolation-filters="sRGB">
<feFlood flood-opacity="0" result="BackgroundImageFix"/>
<feColorMatrix in="SourceAlpha" type="matrix" values="0 0 0 0 0 0 0 0 0 0 0 0 0 0 0 0 0 0 127 0"/>
<feOffset dx="4" dy="8"/>
<feGaussianBlur stdDeviation="10"/>
<feColorMatrix type="matrix" values="0 0 0 0 0 0 0 0 0 0.361373 0 0 0 0 0.475 0 0 0 0.3 0"/>
<feBlend mode="normal" in2="BackgroundImageFix" result="effect1_dropShadow"/>
<feBlend mode="normal" in="SourceGraphic" in2="effect1_dropShadow" result="shape"/>
</filter>
<filter id="filter5_bd" x="0" y="-12.9481" width="384" height="567.128" filterUnits="userSpaceOnUse" color-interpolation-filters="sRGB">
<feFlood flood-opacity="0" result="BackgroundImageFix"/>
<feGaussianBlur in="BackgroundImage" stdDeviation="9"/>
<feComposite in2="SourceAlpha" operator="in" result="effect1_backgroundBlur"/>
<feColorMatrix in="SourceAlpha" type="matrix" values="0 0 0 0 0 0 0 0 0 0 0 0 0 0 0 0 0 0 127 0"/>
<feOffset dx="4" dy="20"/>
<feGaussianBlur stdDeviation="12.5"/>
<feColorMatrix type="matrix" values="0 0 0 0 0 0 0 0 0 0.5167 0 0 0 0 0.679167 0 0 0 0.4 0"/>
<feBlend mode="normal" in2="effect1_backgroundBlur" result="effect2_dropShadow"/>
<feBlend mode="normal" in="SourceGraphic" in2="effect2_dropShadow" result="shape"/>
</filter>
<filter id="filter6_d" x="60.1745" y="93.1935" width="179.468" height="258.313" filterUnits="userSpaceOnUse" color-interpolation-filters="sRGB">
<feFlood flood-opacity="0" result="BackgroundImageFix"/>
<feColorMatrix in="SourceAlpha" type="matrix" values="0 0 0 0 0 0 0 0 0 0 0 0 0 0 0 0 0 0 127 0"/>
<feOffset dx="4" dy="8"/>
<feGaussianBlur stdDeviation="10"/>
<feColorMatrix type="matrix" values="0 0 0 0 0 0 0 0 0 0.361373 0 0 0 0 0.475 0 0 0 0.3 0"/>
<feBlend mode="normal" in2="BackgroundImageFix" result="effect1_dropShadow"/>
<feBlend mode="normal" in="SourceGraphic" in2="effect1_dropShadow" result="shape"/>
</filter>
<filter id="filter7_bd" x="346" y="-12.9481" width="384" height="566.528" filterUnits="userSpaceOnUse" color-interpolation-filters="sRGB">
<feFlood flood-opacity="0" result="BackgroundImageFix"/>
<feGaussianBlur in="BackgroundImage" stdDeviation="9"/>
<feComposite in2="SourceAlpha" operator="in" result="effect1_backgroundBlur"/>
<feColorMatrix in="SourceAlpha" type="matrix" values="0 0 0 0 0 0 0 0 0 0 0 0 0 0 0 0 0 0 127 0"/>
<feOffset dx="4" dy="20"/>
<feGaussianBlur stdDeviation="12.5"/>
<feColorMatrix type="matrix" values="0 0 0 0 0 0 0 0 0 0.5167 0 0 0 0 0.679167 0 0 0 0.4 0"/>
<feBlend mode="normal" in2="effect1_backgroundBlur" result="effect2_dropShadow"/>
<feBlend mode="normal" in="SourceGraphic" in2="effect2_dropShadow" result="shape"/>
</filter>
<filter id="filter8_d" x="575.94" y="186.406" width="87.7153" height="113.245" filterUnits="userSpaceOnUse" color-interpolation-filters="sRGB">
<feFlood flood-opacity="0" result="BackgroundImageFix"/>
<feColorMatrix in="SourceAlpha" type="matrix" values="0 0 0 0 0 0 0 0 0 0 0 0 0 0 0 0 0 0 127 0"/>
<feOffset dx="4" dy="8"/>
<feGaussianBlur stdDeviation="10"/>
<feColorMatrix type="matrix" values="0 0 0 0 0 0 0 0 0 0.361373 0 0 0 0 0.475 0 0 0 0.3 0"/>
<feBlend mode="normal" in2="BackgroundImageFix" result="effect1_dropShadow"/>
<feBlend mode="normal" in="SourceGraphic" in2="effect1_dropShadow" result="shape"/>
</filter>
<filter id="filter9_bd" x="51.209" y="446.068" width="629.387" height="283.932" filterUnits="userSpaceOnUse" color-interpolation-filters="sRGB">
<feFlood flood-opacity="0" result="BackgroundImageFix"/>
<feGaussianBlur in="BackgroundImage" stdDeviation="9"/>
<feComposite in2="SourceAlpha" operator="in" result="effect1_backgroundBlur"/>
<feColorMatrix in="SourceAlpha" type="matrix" values="0 0 0 0 0 0 0 0 0 0 0 0 0 0 0 0 0 0 127 0"/>
<feOffset dx="4" dy="20"/>
<feGaussianBlur stdDeviation="12.5"/>
<feColorMatrix type="matrix" values="0 0 0 0 0 0 0 0 0 0.5167 0 0 0 0 0.679167 0 0 0 0.4 0"/>
<feBlend mode="normal" in2="effect1_backgroundBlur" result="effect2_dropShadow"/>
<feBlend mode="normal" in="SourceGraphic" in2="effect2_dropShadow" result="shape"/>
</filter>
<filter id="filter10_d" x="154.45" y="527.136" width="428.987" height="147.854" filterUnits="userSpaceOnUse" color-interpolation-filters="sRGB">
<feFlood flood-opacity="0" result="BackgroundImageFix"/>
<feColorMatrix in="SourceAlpha" type="matrix" values="0 0 0 0 0 0 0 0 0 0 0 0 0 0 0 0 0 0 127 0"/>
<feOffset dx="4" dy="8"/>
<feGaussianBlur stdDeviation="10"/>
<feColorMatrix type="matrix" values="0 0 0 0 0 0 0 0 0 0.361373 0 0 0 0 0.475 0 0 0 0.3 0"/>
<feBlend mode="normal" in2="BackgroundImageFix" result="effect1_dropShadow"/>
<feBlend mode="normal" in="SourceGraphic" in2="effect1_dropShadow" result="shape"/>
</filter>
</defs>
</svg>
