<svg viewBox="0 0 730 730" fill="none" xmlns="http://www.w3.org/2000/svg">
<g filter="url(#filter0_bd)">
<path d="M369 684.908C512.681 681.59 634.332 589.14 680.807 460.699L571.316 425.123C539.929 507.464 461.575 566.625 369 569.86V684.908Z" fill="#00A9DE" fill-opacity="0.7"/>
</g>
<g filter="url(#filter1_bd)">
<path d="M576.476 410.436C582.671 389.864 586 368.051 586 345.46C586 273.995 552.682 210.312 500.732 169.097L568.371 76C649.033 138.168 701 235.745 701 345.46C701 380.456 695.713 414.217 685.893 445.988L576.476 410.436Z" fill="#00A9DE" fill-opacity="0.7"/>
</g>
<g filter="url(#filter2_bd)">
<path d="M487.853 159.142C451.737 134.445 408.055 120 361 120C313.449 120 269.343 134.751 233.009 159.926L165.397 66.8655C220.717 27.8894 288.185 4.99999 361 5C433.319 5.00001 500.365 27.579 555.472 66.0722L487.853 159.142Z" fill="#00A9DE" fill-opacity="0.7"/>
</g>
<g filter="url(#filter3_bd)">
<path d="M220.188 169.499C168.856 210.738 136 274.032 136 345C136 367.406 139.275 389.047 145.373 409.47L35.9512 445.023C26.2316 413.4 21 379.811 21 345C21 235.781 72.4979 138.591 152.537 76.3855L220.188 169.499Z" fill="#00A9DE" fill-opacity="0.7"/>
</g>
<g filter="url(#filter4_bd)">
<path d="M353 569.86V684.908C209.133 681.586 87.3551 588.901 41.0133 460.202L150.497 424.629C181.758 507.228 260.24 566.619 353 569.86Z" fill="#00A9DE" fill-opacity="0.7"/>
</g>
<path d="M303.528 52.8199L304.503 58.6171C304.386 58.6452 304.253 58.6842 304.101 58.7341C303.956 58.7716 303.752 58.8341 303.487 58.9214C302.108 59.3767 301.138 59.9549 300.579 60.6559C300.026 61.3445 299.902 62.1341 300.207 63.0249C300.384 63.5445 300.739 63.9182 301.269 64.146C301.796 64.3645 302.366 64.3724 302.98 64.1696C303.576 63.9732 304.018 63.6517 304.307 63.2052C304.602 62.7463 304.711 62.2198 304.634 61.6257L309.396 60.0538C309.801 62.0061 309.538 63.7402 308.605 65.2563C307.682 66.7692 306.21 67.8594 304.188 68.5268C302.204 69.1818 300.386 69.1568 298.736 68.452C297.095 67.744 295.976 66.5179 295.379 64.7734C294.823 63.1496 294.879 61.6388 295.547 60.2411C296.211 58.834 297.342 57.867 298.939 57.3399L299.308 57.2183L298.823 54.3731L303.528 52.8199ZM303.152 48.1264C303.406 48.8687 303.348 49.6056 302.978 50.337C302.608 51.0685 302.04 51.5605 301.275 51.8132C300.472 52.0783 299.717 52.0383 299.01 51.6934C298.3 51.3391 297.81 50.7677 297.54 49.9789C297.263 49.1717 297.296 48.4225 297.638 47.7313C297.989 47.037 298.571 46.5558 299.384 46.2876C300.215 46.0131 300.978 46.0453 301.673 46.3841C302.376 46.7198 302.87 47.3005 303.152 48.1264Z" fill="white"/>
<path d="M317.75 52.4952L323.951 51.8594L325.538 53.6308C325.969 52.9763 326.274 52.2561 326.451 51.4703C326.628 50.6844 326.671 49.868 326.581 49.021C326.416 47.4632 325.779 46.2391 324.672 45.3486C323.564 44.4485 322.237 44.0777 320.691 44.2363C318.856 44.4243 317.393 45.224 316.3 46.6352C315.206 48.0367 314.76 49.6818 314.961 51.5706C315.138 53.2355 315.75 54.5211 316.799 55.4273C317.847 56.3336 319.15 56.7069 320.706 56.5473C320.796 56.5382 320.943 56.5083 321.148 56.4578C321.353 56.4072 321.495 56.3779 321.575 56.3697L317.75 52.4952ZM333.376 62.0248L327.353 62.6423L325.239 60.4378C324.549 60.7349 323.819 60.982 323.048 61.1792C322.287 61.3753 321.49 61.516 320.657 61.6014C317.495 61.9257 314.839 61.263 312.689 59.6134C310.538 57.954 309.305 55.6396 308.989 52.6701C308.82 51.0831 308.911 49.5778 309.26 48.1542C309.62 46.7295 310.236 45.4017 311.107 44.1706C312.124 42.7081 313.432 41.5307 315.031 40.6385C316.629 39.7365 318.4 39.1859 320.343 38.9866C323.605 38.6522 326.345 39.3014 328.563 40.9341C330.781 42.5669 332.048 44.8632 332.362 47.823C332.563 49.7118 332.401 51.4901 331.877 53.158C331.352 54.8161 330.478 56.3082 329.256 57.6343L333.376 62.0248Z" fill="white"/>
<path d="M335.449 38.4464L341.318 38.1508L340.133 49.017C340.037 49.8453 339.976 50.4952 339.951 50.967C339.925 51.429 339.921 51.836 339.94 52.1879C339.988 53.1069 340.289 53.8121 340.844 54.3037C341.398 54.7855 342.148 55.0026 343.094 54.9549C345.344 54.8416 346.788 51.8185 347.426 45.8856L347.445 45.6787L348.291 37.7995L354.16 37.5039L352.84 49.7885L352.841 49.8031C352.551 52.4643 352.111 54.3586 351.521 55.4861C350.778 56.9252 349.678 58.049 348.223 58.8575C346.778 59.6654 345.045 60.1203 343.024 60.222C340.416 60.3534 338.294 59.8477 336.657 58.7049C335.02 57.5524 334.148 55.9593 334.042 53.9259C334.01 53.3198 334.027 52.5053 334.094 51.4826C334.16 50.4598 334.273 49.1897 334.434 47.6721L335.449 38.4464Z" fill="white"/>
<path d="M360.623 54.0545L367.396 54.0036L366.671 58.7961L354.051 58.8909L357.338 37.3688L369.957 37.274L369.203 42.2428L362.43 42.2937L361.904 45.8071L368.184 45.76L367.488 50.4347L361.178 50.4821L360.623 54.0545ZM360.85 35.2279L364.084 30.0348L368.719 30L363.122 35.2108L360.85 35.2279Z" fill="white"/>
<path d="M386.202 53.7412L392.958 54.2292L391.84 58.9482L379.254 58.039L384.304 36.849L396.89 37.7582L395.729 42.6508L388.974 42.1628L388.16 45.6229L394.423 46.0753L393.344 50.6794L387.051 50.2247L386.202 53.7412Z" fill="white"/>
<path d="M397.159 53.1738C398.092 54.1284 398.976 54.8193 399.81 55.2468C400.655 55.674 401.52 55.8807 402.407 55.8667C403.145 55.8551 403.73 55.6697 404.163 55.3104C404.596 54.9511 404.807 54.4828 404.798 53.9053C404.785 53.1223 403.884 52.2896 402.095 51.4073C401.924 51.3218 401.789 51.2554 401.688 51.2081C399.95 50.3543 398.755 49.5263 398.104 48.7239C397.452 47.9216 397.117 46.938 397.098 45.7733C397.064 43.6493 397.763 41.9005 399.196 40.5269C400.639 39.1531 402.512 38.4481 404.814 38.4118C406.03 38.3927 407.2 38.5848 408.323 38.9881C409.456 39.3912 410.528 39.996 411.538 40.8025L409.095 45.0851C408.297 44.4319 407.572 43.9489 406.918 43.6361C406.265 43.3233 405.665 43.1712 405.116 43.1799C404.518 43.1893 404.023 43.3684 403.63 43.7173C403.236 44.0563 403.044 44.4706 403.052 44.96C403.062 45.5668 403.82 46.2353 405.328 46.9654C405.86 47.2214 406.272 47.4302 406.564 47.5921C408.113 48.3999 409.193 49.2346 409.805 50.0963C410.417 50.9482 410.734 52.0251 410.755 53.3269C410.793 55.627 410.011 57.4799 408.409 58.8856C406.806 60.2814 404.61 61.0013 401.819 61.0453C400.354 61.0684 398.978 60.7865 397.693 60.1998C396.407 59.6032 395.241 58.7111 394.195 57.5233L397.159 53.1738Z" fill="white"/>
<path d="M410.232 61.3693C410.483 60.6262 410.976 60.0701 411.71 59.7012C412.454 59.3353 413.209 59.2775 413.975 59.5276C414.779 59.7901 415.356 60.2725 415.707 60.975C416.06 61.6681 416.103 62.4094 415.836 63.199C415.563 64.0072 415.073 64.5849 414.367 64.9322C413.671 65.2825 412.916 65.3249 412.102 65.0593C411.27 64.7876 410.68 64.3113 410.333 63.6306C409.985 62.9498 409.952 62.1961 410.232 61.3693ZM412.763 57.3833L415.572 52.1573C415.701 52.2098 415.835 52.2639 415.974 52.3195C416.125 52.3689 416.338 52.4384 416.612 52.528C417.984 52.9757 419.102 53.0879 419.965 52.8643C420.829 52.6407 421.41 52.0877 421.708 51.2052C421.888 50.6758 421.831 50.1619 421.537 49.6638C421.253 49.1687 420.803 48.8208 420.189 48.6201C419.602 48.4286 419.05 48.4291 418.534 48.6214C418.02 48.8044 417.612 49.1561 417.31 49.6764L412.542 48.12C413.414 46.3208 414.68 45.0939 416.341 44.4394C418.011 43.7881 419.863 43.7943 421.897 44.4583C423.874 45.1037 425.307 46.1907 426.198 47.7192C427.088 49.2477 427.237 50.8851 426.646 52.6315C426.096 54.2571 425.12 55.4342 423.717 56.1628C422.325 56.8944 420.834 57.0008 419.245 56.482L418.861 56.357L417.502 58.9305L412.763 57.3833Z" fill="white"/>
<path d="M239.232 109.029L240.673 114.588C240.565 114.626 240.441 114.676 240.303 114.738C240.169 114.787 239.98 114.866 239.737 114.975C238.47 115.54 237.603 116.189 237.135 116.921C236.672 117.64 236.625 118.42 236.994 119.261C237.209 119.751 237.578 120.084 238.101 120.259C238.62 120.425 239.161 120.382 239.725 120.131C240.272 119.887 240.662 119.534 240.896 119.074C241.135 118.601 241.191 118.079 241.065 117.507L245.439 115.555C245.997 117.42 245.902 119.133 245.154 120.691C244.414 122.246 243.116 123.438 241.258 124.267C239.436 125.08 237.711 125.217 236.084 124.676C234.465 124.132 233.295 123.037 232.574 121.391C231.902 119.858 231.82 118.382 232.328 116.962C232.833 115.533 233.818 114.491 235.285 113.837L235.623 113.686L234.91 110.958L239.232 109.029ZM238.456 104.491C238.763 105.192 238.774 105.915 238.489 106.66C238.203 107.405 237.709 107.934 237.006 108.248C236.268 108.577 235.549 108.605 234.848 108.331C234.143 108.049 233.628 107.536 233.302 106.792C232.968 106.03 232.932 105.298 233.194 104.594C233.465 103.887 233.974 103.367 234.72 103.034C235.484 102.693 236.21 102.657 236.898 102.925C237.595 103.19 238.115 103.712 238.456 104.491Z" fill="white"/>
<path d="M255.181 91.9117L256.561 97.6231C255.557 97.2936 254.554 97.1508 253.552 97.1947C252.546 97.2298 251.576 97.4473 250.641 97.8472C249.051 98.5275 247.976 99.6478 247.416 101.208C246.855 102.769 246.94 104.417 247.67 106.154C248.329 107.722 249.273 108.754 250.501 109.248C251.725 109.733 253.127 109.637 254.709 108.96C255.39 108.669 256.054 108.286 256.7 107.812C257.354 107.334 258.009 106.758 258.663 106.083L259.97 111.436C259.403 111.928 258.745 112.397 257.995 112.842C257.256 113.293 256.429 113.715 255.511 114.108C252.777 115.277 250.225 115.361 247.855 114.357C245.494 113.35 243.719 111.431 242.53 108.602C241.956 107.236 241.619 105.846 241.52 104.433C241.426 103.007 241.576 101.611 241.971 100.246C242.436 98.654 243.253 97.2385 244.423 95.9997C245.601 94.7572 247.081 93.7547 248.863 92.9923C249.877 92.5587 250.908 92.2528 251.956 92.0746C253.005 91.8964 254.08 91.8421 255.181 91.9117Z" fill="white"/>
<path d="M267.587 90.776C265.987 91.3492 264.85 92.4116 264.178 93.963C263.505 95.5144 263.472 97.1517 264.078 98.875C264.615 100.4 265.472 101.464 266.651 102.068C267.839 102.668 269.153 102.711 270.593 102.195C272.167 101.632 273.293 100.553 273.97 98.959C274.645 97.3561 274.677 95.6885 274.068 93.9562C273.567 92.5307 272.708 91.5224 271.494 90.9314C270.276 90.3314 268.973 90.2796 267.587 90.776ZM271.989 107.151C270.585 107.654 269.238 107.918 267.948 107.943C266.667 107.965 265.443 107.748 264.276 107.292C263.045 106.799 261.951 106.037 260.995 105.008C260.039 103.979 259.319 102.779 258.837 101.407C258.316 99.9276 258.054 98.4672 258.051 97.0259C258.053 95.5723 258.317 94.1621 258.843 92.7953C259.451 91.1755 260.391 89.7672 261.661 88.5706C262.938 87.3617 264.457 86.4418 266.218 85.8109C269.169 84.754 271.854 84.7576 274.272 85.8218C276.7 86.8827 278.396 88.7845 279.361 91.5273C279.878 92.998 280.133 94.4662 280.125 95.9319C280.123 97.3855 279.862 98.7896 279.341 100.144C278.707 101.804 277.768 103.227 276.524 104.414C275.28 105.601 273.769 106.514 271.989 107.151ZM263.705 85.0196L264.966 79.2037L269.124 77.7145L265.743 84.2894L263.705 85.0196Z" fill="white"/>
<path d="M281.515 102.421L282.081 80.4416L288.046 78.7694L291.551 86.2381C291.765 86.6948 291.978 87.1816 292.189 87.6987C292.407 88.204 292.627 88.7336 292.848 89.2876C292.837 88.8535 292.85 88.3828 292.888 87.8755C292.932 87.3563 293.013 86.7026 293.131 85.9144L294.533 76.9511L300.458 75.2904L306.515 95.413L301.565 96.8007L298.85 87.158C298.701 86.6137 298.562 86.0762 298.436 85.5452C298.307 85.0051 298.187 84.4624 298.076 83.9171C298.063 84.6561 297.955 85.6055 297.752 86.7652C297.717 86.9938 297.69 87.1652 297.673 87.2795L295.805 98.4153L292.555 99.3263L287.967 90.015C287.729 89.5451 287.5 89.0726 287.281 88.5975C287.068 88.1107 286.86 87.6226 286.656 87.1331C286.721 87.7609 286.767 88.359 286.796 88.9273C286.833 89.4931 286.856 90.0233 286.864 90.5178L286.74 100.956L281.515 102.421Z" fill="white"/>
<path d="M315.243 76.8002C313.578 77.1413 312.305 78.0323 311.423 79.4732C310.542 80.9141 310.282 82.5306 310.642 84.3226C310.962 85.9083 311.663 87.0834 312.746 87.8481C313.839 88.6108 315.134 88.8388 316.631 88.532C318.268 88.1966 319.533 87.2878 320.425 85.8055C321.316 84.3139 321.58 82.6673 321.217 80.8659C320.919 79.3835 320.209 78.2638 319.088 77.5068C317.966 76.7403 316.684 76.5048 315.243 76.8002ZM317.325 93.636C315.865 93.9352 314.494 94.006 313.214 93.8484C311.942 93.6889 310.76 93.301 309.668 92.6847C308.518 92.0216 307.541 91.113 306.737 89.9588C305.933 88.8046 305.388 87.5145 305.101 86.0884C304.791 84.5497 304.735 83.0665 304.931 81.639C305.136 80.2001 305.593 78.8412 306.304 77.5623C307.131 76.0445 308.257 74.7831 309.681 73.7781C311.113 72.7617 312.745 72.0658 314.577 71.6904C317.646 71.0615 320.303 71.445 322.55 72.8408C324.806 74.2347 326.221 76.3577 326.795 79.2099C327.103 80.7393 327.151 82.229 326.94 83.6792C326.735 85.118 326.282 86.4713 325.578 87.7389C324.719 89.2924 323.592 90.5688 322.195 91.5682C320.799 92.5675 319.175 93.2568 317.325 93.636Z" fill="white"/>
<path d="M339.212 91.063L341.306 69.8836L353.328 69.1905L352.847 74.0513L346.382 74.4241L346.023 77.9114L352.077 77.5624L351.609 82.1348L345.583 82.4822L344.768 90.7426L339.212 91.063Z" fill="white"/>
<path d="M356.679 69L362.272 69.0685L360.48 79.6026C360.337 80.4051 360.24 81.0359 360.187 81.4948C360.134 81.9441 360.105 82.3411 360.101 82.6858C360.09 83.5857 360.333 84.2924 360.83 84.8059C361.327 85.3099 362.026 85.5674 362.928 85.5784C365.072 85.6047 366.629 82.7418 367.6 76.9898L367.631 76.7891L368.919 69.15L374.512 69.2185L372.504 81.1287L372.504 81.1431C372.065 83.7228 371.53 85.545 370.901 86.6097C370.106 87.9691 368.993 88.9991 367.561 89.6997C366.139 90.4003 364.464 90.7389 362.538 90.7152C360.052 90.6848 358.067 90.062 356.582 88.847C355.098 87.6224 354.367 86.0145 354.391 84.0233C354.398 83.4297 354.465 82.6359 354.591 81.6416C354.717 80.6474 354.902 79.4146 355.148 77.9431L356.679 69Z" fill="white"/>
<path d="M373.138 89.6372L378.358 69.0146L384.692 69.614L388.11 80.3659C388.14 80.4553 388.188 80.6088 388.253 80.8266C388.63 82.0065 388.873 83.0296 388.983 83.8958L389.032 83.3668C389.068 82.9855 389.126 82.5679 389.206 82.1139C389.297 81.6513 389.415 81.0952 389.561 80.4455L392.118 70.3167L397.659 70.841L392.44 91.4637L386.346 90.8871L382.688 79.7951C382.42 78.9908 382.219 78.3276 382.087 77.8054C381.964 77.2841 381.864 76.765 381.788 76.2482L381.734 76.8344C381.698 77.2157 381.642 77.6191 381.564 78.0444C381.497 78.4612 381.388 79.0182 381.237 79.7155L378.679 90.1616L373.138 89.6372Z" fill="white"/>
<path d="M416.63 75.2439L414.724 80.7993C414.057 79.9736 413.29 79.3055 412.424 78.7949C411.56 78.2749 410.628 77.9276 409.627 77.753C407.925 77.4561 406.42 77.8104 405.112 78.816C403.803 79.8216 402.989 81.2537 402.671 83.1121C402.383 84.7914 402.623 86.174 403.39 87.26C404.159 88.3366 405.389 89.0226 407.082 89.3179C407.811 89.4451 408.574 89.486 409.372 89.4406C410.179 89.3967 411.038 89.2698 411.95 89.0598L410.176 94.2737C409.436 94.3777 408.63 94.4121 407.76 94.3769C406.898 94.3527 405.975 94.2549 404.994 94.0836C402.067 93.573 399.877 92.2484 398.423 90.1099C396.979 87.973 396.517 85.3904 397.036 82.3621C397.286 80.8999 397.749 79.5475 398.425 78.3051C399.111 77.0549 399.986 75.964 401.051 75.0324C402.296 73.9477 403.743 73.2043 405.391 72.802C407.049 72.4014 408.831 72.3675 410.739 72.7003C411.823 72.8896 412.854 73.1958 413.831 73.6189C414.809 74.042 415.741 74.5837 416.63 75.2439Z" fill="white"/>
<path d="M412.858 95.4519L420.352 75.5536L425.911 76.7256L418.417 96.624L412.858 95.4519Z" fill="white"/>
<path d="M436.656 85.6577C435.014 85.2208 433.482 85.4518 432.059 86.3507C430.637 87.2497 429.695 88.5832 429.233 90.3514C428.824 91.916 428.938 93.2829 429.575 94.4522C430.22 95.624 431.282 96.4063 432.759 96.7993C434.374 97.2288 435.906 96.978 437.357 96.047C438.809 95.1066 439.768 93.7477 440.233 91.9703C440.615 90.5076 440.469 89.1867 439.796 88.0076C439.125 86.8193 438.079 86.036 436.656 85.6577ZM431.143 101.686C429.703 101.303 428.443 100.755 427.363 100.042C426.293 99.3318 425.403 98.4565 424.693 97.4162C423.952 96.3083 423.475 95.0574 423.26 93.6636C423.045 92.2699 423.121 90.8694 423.489 89.4622C423.886 87.944 424.485 86.5886 425.287 85.396C426.101 84.1967 427.107 83.1821 428.305 82.3522C429.713 81.3602 431.276 80.7313 432.994 80.4656C434.723 80.193 436.492 80.297 438.299 80.7778C441.327 81.5832 443.543 83.1131 444.946 85.3675C446.358 87.6243 446.697 90.1599 445.961 92.9742C445.567 94.4832 444.957 95.8408 444.132 97.047C443.318 98.2464 442.317 99.2576 441.131 100.081C439.68 101.091 438.109 101.732 436.418 102.005C434.728 102.278 432.969 102.172 431.143 101.686Z" fill="white"/>
<path d="M441.343 104.767L451.908 86.3446L457.844 88.6541L458.246 99.9383C458.25 100.032 458.255 100.193 458.259 100.421C458.305 101.66 458.264 102.711 458.137 103.575L458.327 103.079C458.463 102.722 458.631 102.335 458.83 101.92C459.042 101.5 459.305 100.997 459.621 100.412L464.803 91.3615L469.996 93.3817L459.431 111.805L453.72 109.583L453.18 97.9058C453.137 97.0583 453.123 96.365 453.135 95.8261C453.157 95.2907 453.201 94.7639 453.267 94.2457L453.057 94.795C452.92 95.1523 452.757 95.5251 452.568 95.9133C452.391 96.296 452.137 96.8024 451.805 97.4324L446.536 106.788L441.343 104.767Z" fill="white"/>
<path d="M460.566 112.231L478.82 97.6141L485.142 100.584L480.36 121.529L475.237 119.123L476.134 115.172L469.528 112.068L466.063 114.813L460.566 112.231ZM473.383 108.715L477.37 110.588L478.56 105.73C478.678 105.247 478.796 104.821 478.913 104.454C479.031 104.087 479.155 103.749 479.287 103.441C478.866 103.877 478.486 104.258 478.146 104.585C477.82 104.907 477.57 105.143 477.396 105.293L473.383 108.715Z" fill="white"/>
<path d="M483.755 120.833C484.087 120.145 484.623 119.668 485.363 119.403C486.111 119.142 486.831 119.181 487.522 119.521C488.247 119.877 488.731 120.418 488.972 121.143C489.217 121.86 489.163 122.584 488.81 123.316C488.449 124.064 487.913 124.563 487.203 124.81C486.501 125.062 485.783 125.008 485.05 124.647C484.299 124.279 483.803 123.742 483.562 123.038C483.321 122.334 483.385 121.599 483.755 120.833ZM486.652 117.289L489.969 112.577C490.085 112.644 490.204 112.714 490.328 112.785C490.464 112.852 490.656 112.946 490.904 113.068C492.141 113.675 493.181 113.925 494.025 113.818C494.868 113.71 495.487 113.247 495.882 112.429C496.118 111.939 496.13 111.433 495.916 110.913C495.711 110.397 495.332 110.003 494.777 109.731C494.248 109.471 493.727 109.402 493.215 109.523C492.707 109.636 492.277 109.925 491.926 110.391L487.626 108.28C488.678 106.646 490.029 105.616 491.679 105.192C493.339 104.771 495.085 105.011 496.92 105.912C498.703 106.788 499.917 108.023 500.562 109.617C501.207 111.211 501.139 112.818 500.359 114.436C499.632 115.943 498.561 116.961 497.145 117.49C495.737 118.023 494.317 117.938 492.883 117.234L492.538 117.064L490.927 119.388L486.652 117.289Z" fill="white"/>
<path d="M96.229 374.994L75.5171 375L74.9716 371.551C74.5647 368.978 74.3484 367.133 74.3225 366.015C74.286 364.889 74.3886 363.957 74.6302 363.219C75.1499 361.614 76.0803 360.311 77.4214 359.308C78.7518 358.297 80.4205 357.636 82.4274 357.324C84.3699 357.022 86.1239 357.11 87.6896 357.586C89.2538 358.054 90.6547 358.921 91.8925 360.187C92.7508 361.082 93.4409 362.194 93.9625 363.525C94.475 364.857 94.9866 367.138 95.4974 370.368L96.229 374.994ZM90.7663 369.616C90.7347 369.238 90.7099 368.961 90.6917 368.787C90.6628 368.604 90.6361 368.435 90.6116 368.28C90.2725 366.136 89.4718 364.592 88.2095 363.647C86.9471 362.703 85.2665 362.394 83.1675 362.72C81.4552 362.986 80.2766 363.585 79.6317 364.517C78.9776 365.451 78.7942 366.825 79.0813 368.641L79.2415 369.654L90.7663 369.616Z" fill="white"/>
<path d="M93.7002 357.989L72.5276 349.381L72.0149 342.612L92.0951 336.798L92.5105 342.282L88.7253 343.383L89.261 350.456L93.2545 352.104L93.7002 357.989ZM84.5633 348.764L84.24 344.495L79.5432 345.775C79.0763 345.903 78.6587 346.003 78.2905 346.077C77.9223 346.151 77.576 346.204 77.2514 346.238C77.8236 346.39 78.3297 346.532 78.7697 346.666C79.1997 346.792 79.5204 346.893 79.7318 346.97L84.5633 348.764Z" fill="white"/>
<path d="M91.9143 334.034L76.1935 331.633L76.2123 336.176L71.4568 335.42L71.3974 321.096L76.1529 321.852L76.1709 326.188L91.8917 328.59L91.9143 334.034Z" fill="white"/>
<path d="M75.6267 309.577C75.504 311.226 76.0005 312.651 77.1164 313.854C78.2322 315.056 79.6776 315.722 81.4526 315.851C83.0231 315.966 84.3106 315.616 85.315 314.8C86.3201 313.976 86.8779 312.822 86.9883 311.339C87.109 309.718 86.5935 308.296 85.4419 307.072C84.281 305.848 82.8084 305.171 81.0241 305.041C79.5558 304.933 78.318 305.306 77.3109 306.158C76.2944 307.01 75.733 308.15 75.6267 309.577ZM91.955 312.022C91.8474 313.468 91.5495 314.77 91.0615 315.929C90.5741 317.079 89.8965 318.085 89.0287 318.948C88.1018 319.852 86.9908 320.53 85.6957 320.982C84.4007 321.434 83.0469 321.608 81.6344 321.504C80.1103 321.393 78.7056 321.059 77.4203 320.502C76.1264 319.935 74.9747 319.151 73.9653 318.152C72.763 316.98 71.8803 315.596 71.3171 313.999C70.7453 312.392 70.527 310.681 70.6621 308.867C70.8884 305.828 71.954 303.438 73.8588 301.697C75.7644 299.947 78.1298 299.176 80.9548 299.382C82.4696 299.493 83.8783 299.837 85.1808 300.414C86.4748 300.98 87.6221 301.759 88.623 302.749C89.8503 303.959 90.7466 305.349 91.3119 306.918C91.8771 308.488 92.0915 310.189 91.955 312.022Z" fill="white"/>
<path d="M85.5973 297.317C86.6396 296.616 87.4268 295.919 87.959 295.224C88.4926 294.521 88.8225 293.763 88.9487 292.95C89.0537 292.275 88.9716 291.711 88.7024 291.259C88.4333 290.807 88.027 290.539 87.4837 290.456C86.7469 290.344 85.824 291.034 84.715 292.529C84.608 292.671 84.5244 292.784 84.4642 292.869C83.3899 294.321 82.4252 295.281 81.57 295.749C80.7148 296.216 79.7392 296.366 78.6433 296.199C76.6448 295.894 75.1136 294.978 74.0497 293.452C72.9873 291.916 72.6199 290.094 72.9475 287.985C73.1206 286.871 73.4845 285.834 74.0394 284.872C74.5957 283.901 75.3316 283.018 76.247 282.223L79.882 285.133C79.1437 285.758 78.5765 286.345 78.1804 286.892C77.7843 287.438 77.5472 287.963 77.4692 288.465C77.3841 289.013 77.4743 289.494 77.7399 289.908C77.9963 290.321 78.3548 290.563 78.8153 290.633C79.3863 290.72 80.1327 290.133 81.0546 288.872C81.3785 288.426 81.6392 288.083 81.8369 287.842C82.8382 286.556 83.7912 285.702 84.696 285.279C85.5915 284.855 86.6518 284.737 87.8767 284.924C90.041 285.254 91.6568 286.262 92.7242 287.948C93.7824 289.633 94.1129 291.753 93.7157 294.309C93.5072 295.651 93.0267 296.862 92.2741 297.943C91.5124 299.023 90.492 299.947 89.2131 300.714L85.5973 297.317Z" fill="white"/>
<path d="M99.8648 270.623L85.5044 263.843L84.2044 268.2L79.869 266.121L83.9673 252.384L88.3026 254.464L87.062 258.622L101.422 265.402L99.8648 270.623Z" fill="white"/>
<path d="M100.649 253.459L102.828 247.567L106.861 249.784L102.8 260.762L84.699 250.777L88.7595 239.799L92.9402 242.1L90.7608 247.992L93.7193 249.613L95.7399 244.15L99.6775 246.304L97.6472 251.793L100.649 253.459ZM83.9446 247.021L80.3787 242.494L81.8702 238.462L84.6759 245.043L83.9446 247.021Z" fill="white"/>
<path d="M97.3713 223.691L102.153 226.805C101.213 227.239 100.398 227.804 99.7071 228.5C99.0081 229.192 98.4555 229.989 98.0495 230.892C97.3588 232.427 97.33 233.931 97.9631 235.404C98.5962 236.877 99.751 237.984 101.428 238.725C102.942 239.394 104.305 239.496 105.515 239.029C106.716 238.559 107.66 237.561 108.347 236.034C108.643 235.376 108.865 234.665 109.015 233.902C109.168 233.131 109.256 232.29 109.278 231.379L113.769 234.289C113.688 235.012 113.527 235.78 113.283 236.592C113.052 237.401 112.738 238.247 112.339 239.133C111.152 241.773 109.374 243.526 107.005 244.39C104.641 245.246 102.093 245.071 99.3607 243.863C98.0415 243.28 96.8773 242.523 95.8679 241.592C94.8539 240.648 94.0358 239.564 93.4138 238.338C92.6908 236.906 92.3384 235.365 92.3564 233.715C92.3783 232.056 92.7763 230.366 93.5505 228.646C93.9907 227.667 94.5282 226.767 95.1631 225.946C95.798 225.124 96.5341 224.372 97.3713 223.691Z" fill="white"/>
<path d="M114.23 232.991L97.8193 220.46L100.815 215.026L111.754 216.071C111.845 216.078 112.001 216.094 112.221 216.118C113.422 216.232 114.431 216.405 115.248 216.637L114.795 216.391C114.467 216.214 114.117 216.003 113.742 215.758C113.364 215.5 112.912 215.182 112.388 214.804L104.326 208.655L106.946 203.902L123.356 216.433L120.475 221.66L109.138 220.7C108.315 220.634 107.644 220.56 107.126 220.479C106.612 220.39 106.11 220.281 105.618 220.152L106.121 220.424C106.448 220.601 106.787 220.806 107.137 221.037C107.483 221.257 107.939 221.566 108.504 221.967L116.85 228.238L114.23 232.991Z" fill="white"/>
<path d="M124.642 214.325L109.136 200.706L112.137 196.046L127.642 209.666L124.642 214.325Z" fill="white"/>
<path d="M124.108 181.815L128.136 185.842C127.126 186.074 126.21 186.46 125.389 186.999C124.561 187.533 123.854 188.2 123.269 189C122.273 190.36 121.931 191.826 122.243 193.397C122.555 194.968 123.454 196.287 124.939 197.356C126.282 198.321 127.593 198.7 128.874 198.491C130.148 198.277 131.28 197.494 132.27 196.141C132.697 195.558 133.063 194.908 133.369 194.192C133.68 193.469 133.941 192.664 134.152 191.778L137.939 195.545C137.71 196.236 137.391 196.954 136.984 197.699C136.589 198.443 136.105 199.207 135.53 199.992C133.817 202.331 131.712 203.681 129.214 204.042C126.722 204.395 124.266 203.701 121.845 201.96C120.676 201.119 119.695 200.14 118.902 199.021C118.106 197.89 117.532 196.662 117.179 195.335C116.771 193.786 116.747 192.206 117.11 190.595C117.477 188.977 118.219 187.405 119.335 185.88C119.97 185.013 120.684 184.243 121.477 183.569C122.269 182.895 123.146 182.311 124.108 181.815Z" fill="white"/>
<path d="M135.03 175.323C133.943 176.577 133.489 178.016 133.666 179.64C133.843 181.264 134.607 182.651 135.957 183.8C137.152 184.817 138.397 185.294 139.694 185.229C140.997 185.157 142.137 184.557 143.115 183.429C144.183 182.196 144.621 180.748 144.428 179.086C144.227 177.418 143.448 176.007 142.091 174.851C140.974 173.9 139.755 173.471 138.434 173.564C137.106 173.651 135.971 174.237 135.03 175.323ZM146.701 186.902C145.748 188.002 144.728 188.875 143.641 189.52C142.559 190.158 141.411 190.568 140.196 190.751C138.908 190.933 137.608 190.825 136.296 190.426C134.983 190.027 133.79 189.37 132.715 188.455C131.556 187.468 130.626 186.373 129.926 185.168C129.225 183.95 128.768 182.642 128.555 181.243C128.29 179.593 128.409 177.96 128.913 176.343C129.416 174.714 130.266 173.209 131.462 171.829C133.466 169.517 135.755 168.222 138.331 167.943C140.912 167.657 143.278 168.429 145.427 170.258C146.579 171.239 147.506 172.345 148.208 173.576C148.909 174.794 149.366 176.095 149.578 177.481C149.84 179.177 149.728 180.823 149.242 182.418C148.756 184.013 147.909 185.508 146.701 186.902Z" fill="white"/>
<path d="M151.632 173.647C152.89 173.697 153.941 173.599 154.785 173.354C155.636 173.102 156.356 172.686 156.944 172.107C157.434 171.626 157.706 171.124 157.76 170.601C157.815 170.079 157.648 169.625 157.261 169.238C156.735 168.714 155.579 168.726 153.791 169.275C153.62 169.327 153.485 169.369 153.386 169.401C151.651 169.938 150.299 170.142 149.331 170.015C148.363 169.887 147.488 169.434 146.707 168.654C145.282 167.232 144.599 165.594 144.658 163.739C144.724 161.878 145.52 160.196 147.048 158.693C147.854 157.899 148.769 157.278 149.792 156.831C150.821 156.377 151.942 156.1 153.155 156L154.336 160.481C153.367 160.549 152.559 160.687 151.913 160.894C151.266 161.1 150.761 161.383 150.398 161.741C150.001 162.131 149.785 162.571 149.751 163.061C149.709 163.544 149.853 163.95 150.181 164.277C150.588 164.683 151.541 164.651 153.038 164.179C153.566 164.011 153.981 163.888 154.285 163.811C155.861 163.366 157.14 163.239 158.121 163.432C159.095 163.618 160.019 164.147 160.893 165.019C162.436 166.559 163.131 168.321 162.98 170.306C162.821 172.284 161.816 174.184 159.965 176.006C158.993 176.963 157.881 177.655 156.627 178.082C155.367 178.502 153.993 178.644 152.504 178.509L151.632 173.647Z" fill="white"/>
<path d="M579 174.896L599.55 164.23L601.882 167.403C603.622 169.769 604.795 171.506 605.401 172.612C606.022 173.72 606.404 174.706 606.548 175.57C606.865 177.444 606.619 179.228 605.809 180.922C605.014 182.619 603.701 184.139 601.871 185.484C600.1 186.786 598.314 187.601 596.513 187.93C594.718 188.267 592.878 188.12 590.992 187.49C589.676 187.035 588.413 186.276 587.204 185.212C586.004 184.143 584.312 182.122 582.128 179.151L579 174.896ZM587.213 177.468C587.441 177.831 587.609 178.095 587.718 178.261C587.841 178.429 587.956 178.584 588.061 178.727C589.51 180.699 591.107 181.833 592.85 182.129C594.593 182.425 596.421 181.87 598.335 180.463C599.896 179.315 600.755 178.109 600.91 176.844C601.075 175.572 600.543 174.101 599.315 172.431L598.63 171.5L587.213 177.468Z" fill="white"/>
<path d="M615.233 195.223C614.384 193.563 613.074 192.478 611.304 191.968C609.533 191.458 607.763 191.656 605.991 192.563C604.424 193.365 603.4 194.45 602.919 195.82C602.443 197.199 602.587 198.634 603.351 200.127C604.186 201.759 605.512 202.83 607.329 203.34C609.155 203.845 610.958 203.641 612.739 202.73C614.204 201.981 615.168 200.902 615.63 199.496C616.101 198.085 615.969 196.66 615.233 195.223ZM598.207 202.356C597.462 200.9 596.983 199.472 596.77 198.071C596.561 196.68 596.618 195.317 596.941 193.982C597.296 192.572 597.96 191.273 598.931 190.085C599.903 188.897 601.094 187.943 602.504 187.221C604.024 186.443 605.562 185.949 607.116 185.739C608.684 185.533 610.243 185.619 611.793 185.996C613.628 186.426 615.283 187.247 616.757 188.458C618.245 189.674 619.456 191.196 620.391 193.023C621.957 196.083 622.341 199.005 621.542 201.789C620.748 204.582 618.942 206.7 616.123 208.142C614.611 208.916 613.064 209.403 611.482 209.604C609.914 209.81 608.362 209.727 606.826 209.354C604.944 208.901 603.273 208.083 601.813 206.899C600.354 205.715 599.152 204.201 598.207 202.356Z" fill="white"/>
<path d="M606.135 214.482L628.249 207.608L631.337 213.873L623.338 223.197C623.272 223.276 623.157 223.408 622.993 223.594C622.116 224.618 621.308 225.429 620.568 226.025L621.087 225.77C621.461 225.586 621.881 225.402 622.348 225.218C622.829 225.039 623.412 224.833 624.098 224.599L634.956 221.217L637.657 226.697L615.543 233.571L612.572 227.544L620.749 217.802C621.34 217.092 621.839 216.527 622.247 216.105C622.659 215.693 623.083 215.304 623.518 214.939L622.944 215.222C622.57 215.406 622.164 215.583 621.725 215.753C621.3 215.927 620.721 216.143 619.988 216.4L608.836 219.962L606.135 214.482Z" fill="white"/>
<path d="M617.136 235.909L642.645 237.835L645.548 244.92L626.222 258.089L623.871 252.349L627.512 249.861L624.479 242.458L619.659 242.069L617.136 235.909ZM630.063 242.652L631.894 247.12L636.442 244.126C636.894 243.828 637.303 243.576 637.668 243.37C638.034 243.163 638.384 242.986 638.717 242.839C638.056 242.873 637.468 242.894 636.954 242.903C636.453 242.916 636.076 242.919 635.825 242.909L630.063 242.652Z" fill="white"/>
<path d="M653.086 271.064L646.729 271.769C647.226 270.722 647.521 269.65 647.615 268.553C647.719 267.453 647.621 266.366 647.321 265.293C646.811 263.467 645.753 262.14 644.148 261.312C642.543 260.484 640.753 260.347 638.776 260.899C636.991 261.398 635.745 262.281 635.039 263.549C634.343 264.814 634.249 266.355 634.757 268.171C634.975 268.953 635.295 269.729 635.715 270.499C636.139 271.278 636.668 272.071 637.305 272.877L631.345 273.553C630.894 272.868 630.481 272.085 630.105 271.206C629.722 270.34 629.384 269.38 629.09 268.326C628.212 265.186 628.482 262.396 629.898 259.956C631.318 257.526 633.637 255.862 636.858 254.962C638.413 254.527 639.96 254.355 641.499 254.444C643.051 254.54 644.536 254.899 645.953 255.519C647.605 256.247 649.018 257.334 650.19 258.781C651.365 260.237 652.238 261.988 652.81 264.035C653.135 265.199 653.32 266.364 653.365 267.53C653.409 268.697 653.316 269.875 653.086 271.064Z" fill="white"/>
<path d="M631.622 276.531L654.765 275.629L655.98 281.744L632.837 282.646L631.622 276.531Z" fill="white"/>
<path d="M652.041 296.774C651.841 294.92 651.006 293.438 649.535 292.329C648.064 291.22 646.339 290.772 644.361 290.985C642.611 291.174 641.266 291.821 640.327 292.928C639.389 294.046 639.01 295.438 639.19 297.105C639.387 298.928 640.242 300.402 641.757 301.528C643.282 302.652 645.039 303.107 647.027 302.893C648.664 302.716 649.949 302.054 650.883 300.906C651.828 299.756 652.214 298.379 652.041 296.774ZM633.59 297.347C633.415 295.721 633.478 294.216 633.779 292.832C634.082 291.459 634.623 290.206 635.402 289.074C636.237 287.884 637.321 286.908 638.654 286.147C639.986 285.385 641.439 284.919 643.013 284.75C644.712 284.567 646.324 284.655 647.851 285.014C649.389 285.383 650.814 286.02 652.127 286.926C653.687 287.984 654.939 289.342 655.882 291.001C656.837 292.668 657.425 294.522 657.644 296.563C658.013 299.98 657.326 302.846 655.585 305.161C653.845 307.486 651.401 308.818 648.252 309.157C646.564 309.339 644.945 309.241 643.396 308.863C641.858 308.494 640.438 307.862 639.137 306.965C637.541 305.869 636.274 304.507 635.333 302.88C634.393 301.253 633.812 299.408 633.59 297.347Z" fill="white"/>
<path d="M634.838 309.308L657.683 313.102L657.627 320.086L646.292 324.823C646.197 324.863 646.035 324.93 645.806 325.022C644.562 325.543 643.475 325.904 642.547 326.105L643.125 326.11C643.541 326.113 644 326.137 644.499 326.183C645.009 326.239 645.623 326.317 646.341 326.417L657.561 328.273L657.512 334.382L634.667 330.588L634.721 323.87L646.402 318.839C647.249 318.471 647.949 318.19 648.503 317.996C649.056 317.813 649.61 317.656 650.163 317.525L649.522 317.52C649.106 317.517 648.663 317.493 648.195 317.447C647.737 317.412 647.123 317.345 646.353 317.245L634.789 315.417L634.838 309.308Z" fill="white"/>
<path d="M638.626 341.419L637.879 348.457L632.898 347.128L634.289 334.014L656.656 340.016L655.264 353.13L650.1 351.75L650.847 344.711L647.194 343.742L646.502 350.268L641.642 348.982L642.337 342.425L638.626 341.419Z" fill="white"/>
<path d="M638.986 353.876C637.837 354.689 636.972 355.493 636.393 356.288C635.813 357.093 635.461 357.955 635.338 358.874C635.236 359.638 635.34 360.272 635.651 360.776C635.962 361.28 636.422 361.572 637.031 361.654C637.857 361.764 638.873 360.965 640.079 359.256C640.196 359.093 640.286 358.963 640.352 358.866C641.52 357.205 642.577 356.101 643.522 355.554C644.467 355.008 645.554 354.817 646.783 354.982C649.023 355.281 650.755 356.28 651.979 357.978C653.2 359.686 653.652 361.733 653.333 364.118C653.164 365.378 652.781 366.556 652.182 367.653C651.582 368.76 650.779 369.772 649.774 370.689L645.646 367.488C646.457 366.766 647.078 366.093 647.509 365.467C647.939 364.842 648.192 364.245 648.268 363.677C648.351 363.058 648.24 362.517 647.933 362.056C647.638 361.596 647.232 361.332 646.715 361.263C646.075 361.177 645.254 361.855 644.252 363.298C643.9 363.808 643.616 364.2 643.401 364.476C642.31 365.949 641.264 366.934 640.263 367.43C639.271 367.928 638.089 368.085 636.716 367.902C634.289 367.577 632.461 366.476 631.23 364.598C630.01 362.722 629.593 360.339 629.98 357.448C630.183 355.93 630.693 354.553 631.51 353.317C632.337 352.083 633.456 351.018 634.869 350.125L638.986 353.876Z" fill="white"/>
<path d="M452.741 618.886L451.49 595.762L458.32 594.302L465.402 604.34C465.463 604.423 465.563 604.567 465.702 604.771C466.481 605.872 467.069 606.854 467.467 607.717L467.346 607.152C467.259 606.745 467.183 606.292 467.119 605.794C467.064 605.284 467.006 604.668 466.948 603.946L466.326 592.59L472.301 591.313L473.552 614.438L466.982 615.842L459.537 605.53C458.994 604.783 458.568 604.16 458.259 603.662C457.96 603.161 457.687 602.655 457.439 602.143L457.573 602.77C457.66 603.177 457.732 603.615 457.79 604.082C457.855 604.536 457.922 605.151 457.992 605.924L458.716 617.609L452.741 618.886Z" fill="white"/>
<path d="M479.404 613.617L474.691 590.942L480.521 588.733L485.234 611.409L479.404 613.617Z" fill="white"/>
<path d="M497.277 606.136L482.028 588.029L487.91 585.263L496.021 595.901C496.229 596.171 496.447 596.489 496.676 596.853C496.9 597.208 497.149 597.626 497.422 598.108C497.357 597.505 497.307 596.959 497.272 596.469C497.242 595.965 497.222 595.566 497.21 595.272L497.157 580.914L503.322 578.015L502.085 603.875L497.277 606.136Z" fill="white"/>
<path d="M516.445 590.508L522.44 586.745L524.473 591.483L513.304 598.494L504.199 577.2L515.369 570.189L517.475 575.103L511.48 578.866L512.976 582.336L518.534 578.847L520.527 583.462L514.943 586.968L516.445 590.508Z" fill="white"/>
<path d="M528.716 589.032L517.673 568.676L522.56 564.933L530.948 580.434L536.952 575.836L539.595 580.7L528.716 589.032Z" fill="white"/>
<path d="M541.053 579.521L534.094 554.904L539.749 549.743L558.758 563.364L554.176 567.546L550.588 564.982L544.679 570.374L545.97 575.034L541.053 579.521ZM542.942 565.064L546.508 561.809L542.133 558.567C541.698 558.245 541.321 557.948 541.001 557.675C540.682 557.402 540.396 557.135 540.142 556.873C540.402 557.482 540.624 558.027 540.808 558.507C540.994 558.972 541.125 559.325 541.202 559.565L542.942 565.064Z" fill="white"/>
<path d="M559.9 562.473L545.286 544.515L547.919 541.588C549.884 539.404 551.346 537.903 552.306 537.085C553.265 536.252 554.153 535.678 554.97 535.362C556.74 534.671 558.537 534.55 560.361 534.999C562.183 535.434 563.939 536.41 565.627 537.929C567.261 539.399 568.422 540.982 569.109 542.679C569.804 544.369 570.033 546.2 569.798 548.175C569.621 549.556 569.134 550.947 568.337 552.346C567.533 553.738 565.898 555.805 563.432 558.547L562.858 559.186L559.9 562.473ZM560.753 553.909C561.062 553.612 561.286 553.394 561.426 553.254C561.566 553.099 561.694 552.956 561.813 552.824C563.45 551.004 564.236 549.211 564.172 547.444C564.108 545.677 563.194 543.999 561.428 542.411C559.987 541.115 558.632 540.519 557.361 540.624C556.083 540.721 554.751 541.54 553.364 543.081L552.591 543.941L560.753 553.909Z" fill="white"/>
<path d="M569.412 523.497C568.313 525.004 567.935 526.662 568.278 528.472C568.621 530.283 569.596 531.774 571.203 532.946C572.626 533.984 574.056 534.409 575.496 534.221C576.941 534.024 578.158 533.249 579.146 531.894C580.227 530.413 580.585 528.746 580.221 526.895C579.848 525.037 578.854 523.519 577.238 522.34C575.908 521.37 574.511 520.996 573.048 521.218C571.575 521.433 570.364 522.193 569.412 523.497ZM583.454 535.481C582.49 536.802 581.431 537.873 580.278 538.695C579.13 539.508 577.887 540.072 576.55 540.385C575.131 540.704 573.672 540.698 572.174 540.365C570.676 540.033 569.287 539.401 568.008 538.467C566.628 537.461 565.494 536.311 564.605 535.019C563.715 533.712 563.089 532.281 562.726 530.728C562.283 528.896 562.27 527.049 562.687 525.187C563.102 523.311 563.914 521.543 565.123 519.885C567.149 517.108 569.584 515.449 572.429 514.907C575.281 514.356 577.985 515.014 580.544 516.88C581.916 517.881 583.048 519.042 583.94 520.363C584.831 521.67 585.456 523.093 585.816 524.633C586.26 526.516 586.283 528.377 585.884 530.213C585.486 532.05 584.675 533.806 583.454 535.481Z" fill="white"/>
<path d="M593.689 517.728L590.912 523.135L572.213 509.472L574.998 504.052C575.835 502.421 576.519 501.238 577.049 500.503C577.569 499.763 578.118 499.173 578.696 498.732C579.706 497.951 580.787 497.523 581.939 497.447C583.081 497.366 584.264 497.64 585.487 498.268C587.173 499.134 588.327 500.365 588.948 501.96C589.564 503.542 589.564 505.286 588.947 507.194L599.522 506.373L596.338 512.572L586.548 512.514L593.689 517.728ZM583.532 510.315L584.41 508.606C584.962 507.531 585.14 506.58 584.944 505.753C584.748 504.926 584.187 504.275 583.26 503.799C582.389 503.352 581.621 503.297 580.956 503.634C580.282 503.967 579.64 504.726 579.031 505.913L578.616 506.719L583.532 510.315Z" fill="white"/>
<path d="M156.647 550.258L172.41 542.028L169.356 537.912L174.144 535.45L183.77 548.426L178.982 550.888L176.068 546.96L160.306 555.189L156.647 550.258Z" fill="white"/>
<path d="M170.761 568.071L166.325 563.916L184.595 549.686L189.043 553.852C190.381 555.105 191.331 556.087 191.892 556.798C192.461 557.502 192.878 558.192 193.143 558.868C193.617 560.054 193.732 561.211 193.489 562.339C193.253 563.46 192.665 564.522 191.726 565.526C190.43 566.909 188.929 567.681 187.225 567.84C185.535 567.999 183.858 567.519 182.192 566.402L180.079 576.796L174.993 572.033L177.735 562.635L170.761 568.071ZM180.678 560.339L182.08 561.652C182.962 562.478 183.828 562.911 184.677 562.949C185.525 562.988 186.306 562.627 187.018 561.866C187.687 561.152 187.951 560.428 187.809 559.696C187.674 558.956 187.12 558.13 186.147 557.219L185.485 556.599L180.678 560.339Z" fill="white"/>
<path d="M182.436 578.783L198.117 561.738L203.309 565.188L187.629 582.233L182.436 578.783Z" fill="white"/>
<path d="M204.837 577.34L205.359 577.587C207.148 578.436 208.446 578.821 209.255 578.744C210.065 578.667 210.683 578.176 211.112 577.273C211.474 576.511 211.464 575.826 211.084 575.219C210.717 574.607 209.955 574.026 208.797 573.477L207.809 573.008L204.837 577.34ZM191.998 585.447L205.092 566.34L210.767 569.033C212.339 569.778 213.489 570.405 214.217 570.912C214.949 571.409 215.536 571.947 215.976 572.525C216.776 573.561 217.213 574.668 217.289 575.845C217.374 577.027 217.108 578.267 216.492 579.566C215.881 580.855 215.031 581.917 213.944 582.75C212.866 583.588 211.707 584.075 210.466 584.213C209.736 584.293 208.949 584.225 208.106 584.01C207.267 583.785 206.025 583.282 204.378 582.5L203.531 582.098L202.063 581.402L197.489 588.052L191.998 585.447Z" fill="white"/>
<g filter="url(#filter5_b)">
<circle cx="361" cy="345" r="208" fill="#00C2FF" fill-opacity="0.7"/>
</g>
<g filter="url(#filter6_d)">
<path d="M336.316 406.415C338.167 406.759 339.575 407.499 340.541 408.636C341.519 409.76 342.008 411.214 342.008 412.999C342.008 414.48 341.678 415.849 341.017 417.105C340.369 418.361 339.47 419.346 338.319 420.06C337.473 420.589 336.409 420.965 335.126 421.19C333.857 421.415 331.735 421.527 328.76 421.527H319.181L323.802 392.492H330.386C332.912 392.492 334.716 392.552 335.801 392.671C336.885 392.79 337.79 393.001 338.518 393.305C339.721 393.781 340.673 394.568 341.374 395.666C342.088 396.763 342.445 398.006 342.445 399.394C342.445 401.311 341.896 402.898 340.798 404.154C339.714 405.397 338.22 406.15 336.316 406.415ZM327.63 415.835H328.562C330.915 415.835 332.475 415.551 333.242 414.983C334.022 414.414 334.412 413.416 334.412 411.988C334.412 410.93 334.082 410.176 333.421 409.727C332.76 409.277 331.642 409.053 330.069 409.053H328.681L327.63 415.835ZM329.533 403.737H330.188C332.052 403.737 333.335 403.493 334.035 403.004C334.749 402.501 335.106 401.662 335.106 400.485C335.106 399.639 334.816 399.024 334.234 398.64C333.665 398.244 332.746 398.045 331.477 398.045H330.386L329.533 403.737Z" fill="white"/>
<path d="M342.088 421.527L350.973 392.492H359.601L361.544 403.737C361.663 404.425 361.769 405.152 361.862 405.919C361.967 406.673 362.066 407.459 362.159 408.279C362.304 407.697 362.496 407.076 362.734 406.415C362.985 405.741 363.336 404.901 363.785 403.896L368.981 392.492H377.549L378.243 421.527H371.084L371.004 407.684C371.004 406.904 371.018 406.137 371.044 405.384C371.071 404.617 371.11 403.85 371.163 403.083C370.872 404.061 370.376 405.284 369.676 406.752C369.543 407.043 369.444 407.261 369.378 407.406L362.754 421.527H358.054L355.337 407.426C355.191 406.712 355.059 405.998 354.94 405.284C354.834 404.557 354.735 403.83 354.642 403.103C354.497 403.962 354.338 404.775 354.166 405.542C354.008 406.309 353.843 407.023 353.671 407.684L349.645 421.527H342.088Z" fill="white"/>
<path d="M377.907 421.527L390.778 405.84L383.024 392.492H391.83L394.884 398.204C395.069 398.561 395.247 398.931 395.419 399.315C395.604 399.685 395.776 400.062 395.935 400.445C396.107 400.075 396.305 399.705 396.53 399.335C396.768 398.964 397.039 398.574 397.343 398.164L401.667 392.492H411.166L399.961 406.296L409.005 421.527H399.921L395.737 413.773C395.565 413.469 395.386 413.125 395.201 412.741C395.029 412.358 394.851 411.955 394.666 411.532C394.414 412.047 394.176 412.49 393.952 412.86C393.727 413.231 393.509 413.561 393.297 413.852L387.526 421.527H377.907Z" fill="white"/>
<path d="M429.334 303.949C421.726 303.949 415.352 306.69 410.209 312.173C405.067 317.655 402.496 324.455 402.496 332.572C402.496 339.754 404.536 345.492 408.615 349.784C412.738 354.076 418.22 356.223 425.062 356.223C432.542 356.223 438.896 353.396 444.123 347.744C449.35 342.049 451.964 335.122 451.964 326.962C451.964 320.248 449.839 314.744 445.589 310.452C441.339 306.117 435.921 303.949 429.334 303.949ZM423.596 379.044C416.924 379.044 410.847 378.131 405.364 376.303C399.925 374.476 395.08 371.735 390.83 368.08C386.367 364.17 382.883 359.346 380.375 353.609C377.868 347.872 376.614 341.773 376.614 335.313C376.614 328.344 377.676 321.841 379.801 315.806C381.969 309.729 385.177 304.226 389.427 299.296C394.4 293.431 400.456 288.947 407.596 285.845C414.778 282.7 422.555 281.128 430.927 281.128C444.952 281.128 456.278 285.165 464.905 293.24C473.575 301.314 477.909 311.812 477.909 324.731C477.909 331.658 476.805 338.182 474.595 344.302C472.427 350.379 469.24 355.861 465.032 360.749C459.89 366.741 453.813 371.288 446.8 374.391C439.788 377.493 432.053 379.044 423.596 379.044Z" fill="white"/>
<path d="M305.313 304.83C307.788 299.23 310.959 294.036 314.825 289.249C316.166 287.595 317.58 286.029 319.068 284.548C316.968 283.799 314.846 283.169 312.7 282.657C308.068 281.552 303.287 281 298.357 281C289.687 281 281.846 282.509 274.834 285.526C267.864 288.544 262.042 292.9 257.367 298.594C253.372 303.482 250.334 308.922 248.251 314.914C246.211 320.864 245.191 327.132 245.191 333.72C245.191 347.362 249.186 358.305 257.176 366.55C265.208 374.794 275.875 378.917 289.177 378.917C293.64 378.917 297.783 378.641 301.608 378.088C305.476 377.578 309.003 376.813 312.19 375.793L312.274 375.274C307.566 369.672 304.124 363.205 301.948 355.872C299.519 356.276 297.132 356.478 294.787 356.478C287.095 356.478 281.145 354.416 276.938 350.294C272.73 346.129 270.627 340.264 270.627 332.7C270.627 324.327 273.134 317.443 278.149 312.045C283.164 306.648 289.539 303.949 297.273 303.949C300.015 303.949 302.695 304.243 305.313 304.83Z" fill="white"/>
<path d="M370.868 304.83C373.344 299.23 376.515 294.036 380.38 289.249C381.722 287.595 383.136 286.029 384.624 284.548C382.524 283.799 380.401 283.169 378.256 282.657C373.624 281.552 368.842 281 363.913 281C355.243 281 347.402 282.509 340.39 285.526C333.42 288.544 327.597 292.9 322.923 298.594C318.928 303.482 315.889 308.922 313.807 314.914C311.767 320.864 310.747 327.132 310.747 333.72C310.747 347.362 314.742 358.305 322.731 366.55C330.764 374.794 341.431 378.917 354.733 378.917C359.195 378.917 363.339 378.641 367.164 378.088C371.031 377.578 374.558 376.813 377.746 375.793L377.829 375.274C373.122 369.672 369.68 363.205 367.504 355.872C365.074 356.276 362.687 356.478 360.343 356.478C352.65 356.478 346.701 354.416 342.493 350.294C338.286 346.129 336.182 340.264 336.182 332.7C336.182 324.327 338.69 317.443 343.704 312.045C348.719 306.648 355.094 303.949 362.829 303.949C365.571 303.949 368.25 304.243 370.868 304.83Z" fill="white"/>
</g>
<defs>
<filter id="filter0_bd" x="348" y="405.123" width="361.807" height="324.785" filterUnits="userSpaceOnUse" color-interpolation-filters="sRGB">
<feFlood flood-opacity="0" result="BackgroundImageFix"/>
<feGaussianBlur in="BackgroundImage" stdDeviation="10"/>
<feComposite in2="SourceAlpha" operator="in" result="effect1_backgroundBlur"/>
<feColorMatrix in="SourceAlpha" type="matrix" values="0 0 0 0 0 0 0 0 0 0 0 0 0 0 0 0 0 0 127 0"/>
<feOffset dx="4" dy="20"/>
<feGaussianBlur stdDeviation="12.5"/>
<feColorMatrix type="matrix" values="0 0 0 0 0.366007 0 0 0 0 0.614487 0 0 0 0 0.691667 0 0 0 0.4 0"/>
<feBlend mode="normal" in2="effect1_backgroundBlur" result="effect2_dropShadow"/>
<feBlend mode="normal" in="SourceGraphic" in2="effect2_dropShadow" result="shape"/>
</filter>
<filter id="filter1_bd" x="479.732" y="56" width="250.268" height="434.988" filterUnits="userSpaceOnUse" color-interpolation-filters="sRGB">
<feFlood flood-opacity="0" result="BackgroundImageFix"/>
<feGaussianBlur in="BackgroundImage" stdDeviation="10"/>
<feComposite in2="SourceAlpha" operator="in" result="effect1_backgroundBlur"/>
<feColorMatrix in="SourceAlpha" type="matrix" values="0 0 0 0 0 0 0 0 0 0 0 0 0 0 0 0 0 0 127 0"/>
<feOffset dx="4" dy="20"/>
<feGaussianBlur stdDeviation="12.5"/>
<feColorMatrix type="matrix" values="0 0 0 0 0.366007 0 0 0 0 0.614487 0 0 0 0 0.691667 0 0 0 0.4 0"/>
<feBlend mode="normal" in2="effect1_backgroundBlur" result="effect2_dropShadow"/>
<feBlend mode="normal" in="SourceGraphic" in2="effect2_dropShadow" result="shape"/>
</filter>
<filter id="filter2_bd" x="144.397" y="-15" width="440.075" height="219.926" filterUnits="userSpaceOnUse" color-interpolation-filters="sRGB">
<feFlood flood-opacity="0" result="BackgroundImageFix"/>
<feGaussianBlur in="BackgroundImage" stdDeviation="10"/>
<feComposite in2="SourceAlpha" operator="in" result="effect1_backgroundBlur"/>
<feColorMatrix in="SourceAlpha" type="matrix" values="0 0 0 0 0 0 0 0 0 0 0 0 0 0 0 0 0 0 127 0"/>
<feOffset dx="4" dy="20"/>
<feGaussianBlur stdDeviation="12.5"/>
<feColorMatrix type="matrix" values="0 0 0 0 0.366007 0 0 0 0 0.614487 0 0 0 0 0.691667 0 0 0 0.4 0"/>
<feBlend mode="normal" in2="effect1_backgroundBlur" result="effect2_dropShadow"/>
<feBlend mode="normal" in="SourceGraphic" in2="effect2_dropShadow" result="shape"/>
</filter>
<filter id="filter3_bd" x="0" y="56.3855" width="249.188" height="433.638" filterUnits="userSpaceOnUse" color-interpolation-filters="sRGB">
<feFlood flood-opacity="0" result="BackgroundImageFix"/>
<feGaussianBlur in="BackgroundImage" stdDeviation="10"/>
<feComposite in2="SourceAlpha" operator="in" result="effect1_backgroundBlur"/>
<feColorMatrix in="SourceAlpha" type="matrix" values="0 0 0 0 0 0 0 0 0 0 0 0 0 0 0 0 0 0 127 0"/>
<feOffset dx="4" dy="20"/>
<feGaussianBlur stdDeviation="12.5"/>
<feColorMatrix type="matrix" values="0 0 0 0 0.366007 0 0 0 0 0.614487 0 0 0 0 0.691667 0 0 0 0.4 0"/>
<feBlend mode="normal" in2="effect1_backgroundBlur" result="effect2_dropShadow"/>
<feBlend mode="normal" in="SourceGraphic" in2="effect2_dropShadow" result="shape"/>
</filter>
<filter id="filter4_bd" x="20.0133" y="404.629" width="361.987" height="325.279" filterUnits="userSpaceOnUse" color-interpolation-filters="sRGB">
<feFlood flood-opacity="0" result="BackgroundImageFix"/>
<feGaussianBlur in="BackgroundImage" stdDeviation="10"/>
<feComposite in2="SourceAlpha" operator="in" result="effect1_backgroundBlur"/>
<feColorMatrix in="SourceAlpha" type="matrix" values="0 0 0 0 0 0 0 0 0 0 0 0 0 0 0 0 0 0 127 0"/>
<feOffset dx="4" dy="20"/>
<feGaussianBlur stdDeviation="12.5"/>
<feColorMatrix type="matrix" values="0 0 0 0 0.366007 0 0 0 0 0.614487 0 0 0 0 0.691667 0 0 0 0.4 0"/>
<feBlend mode="normal" in2="effect1_backgroundBlur" result="effect2_dropShadow"/>
<feBlend mode="normal" in="SourceGraphic" in2="effect2_dropShadow" result="shape"/>
</filter>
<filter id="filter5_b" x="133" y="117" width="456" height="456" filterUnits="userSpaceOnUse" color-interpolation-filters="sRGB">
<feFlood flood-opacity="0" result="BackgroundImageFix"/>
<feGaussianBlur in="BackgroundImage" stdDeviation="10"/>
<feComposite in2="SourceAlpha" operator="in" result="effect1_backgroundBlur"/>
<feBlend mode="normal" in="SourceGraphic" in2="effect1_backgroundBlur" result="shape"/>
</filter>
<filter id="filter6_d" x="224.191" y="276" width="282.718" height="190.527" filterUnits="userSpaceOnUse" color-interpolation-filters="sRGB">
<feFlood flood-opacity="0" result="BackgroundImageFix"/>
<feColorMatrix in="SourceAlpha" type="matrix" values="0 0 0 0 0 0 0 0 0 0 0 0 0 0 0 0 0 0 127 0"/>
<feOffset dx="4" dy="20"/>
<feGaussianBlur stdDeviation="12.5"/>
<feColorMatrix type="matrix" values="0 0 0 0 0 0 0 0 0 0.211667 0 0 0 0 0.529167 0 0 0 0.4 0"/>
<feBlend mode="normal" in2="BackgroundImageFix" result="effect1_dropShadow"/>
<feBlend mode="normal" in="SourceGraphic" in2="effect1_dropShadow" result="shape"/>
</filter>
</defs>
</svg>
